<svg xmlns="http://www.w3.org/2000/svg" xmlns:xlink="http://www.w3.org/1999/xlink" version="1.1" width="1000" height="1000" viewBox="0 0 1000 1000" xml:space="preserve">
<desc>Created with Fabric.js 3.5.0</desc>
<defs>
</defs>
<rect x="0" y="0" width="100%" height="100%" fill="rgba(0,0,0,0)"/>
<g transform="matrix(3.1202 0 0 2.6776 519.121 568.3071)" id="505243">
<g style="" vector-effect="non-scaling-stroke">
		<g transform="matrix(1 0 0 1 1 1)" id="Layer_1">
<path style="stroke: none; stroke-width: 1; stroke-dasharray: none; stroke-linecap: butt; stroke-dashoffset: 0; stroke-linejoin: miter; stroke-miterlimit: 4; is-custom-font: none; font-file-url: none; fill: rgb(0,0,0); fill-rule: nonzero; opacity: 1;" transform=" translate(-251, -251)" d="M 341 501 C 227.333359 501 114.166718 501 1.000061 501 C 1.000041 334.333405 1.000041 167.666794 1.00002 1.00015 C 167.666565 1.0001 334.33313 1.0001 500.999756 1.00005 C 500.999847 167.666519 500.999847 334.333038 500.999939 500.999786 C 447.833344 501 394.666656 501 341 501 M 361.916809 341.481049 C 361.601929 341.293579 361.287048 341.10614 361.000793 341.015106 C 361.000793 341.015106 361.09726 340.986664 361.00882 340.285156 C 360.008453 339.493744 359.008087 338.702332 357.983643 338.007843 C 357.983643 338.007843 358.080536 338.032074 357.912994 337.48999 C 357.598175 337.301636 357.283325 337.113281 356.989716 337.026093 C 356.989716 337.026093 357.090973 337.005127 357.00531 336.33371 C 356.349945 335.529724 355.694611 334.725769 355.018646 333.983154 C 355.018646 333.983154 355.083252 333.987305 354.984833 333.225403 C 352.349396 327.566742 349.903931 321.808929 347.019592 316.28009 C 344.624084 311.688293 341.712189 307.365906 339.014069 302.989868 C 339.014069 302.989868 339.081085 302.997101 339.001007 302.290222 C 338.303955 301.388672 337.606873 300.487152 336.941437 299.522644 C 336.941437 299.522644 336.877594 299.492706 336.982056 298.795288 C 336.66449 298.505707 336.346924 298.216125 336.019135 297.988831 C 336.019135 297.988831 336.081024 297.976318 336.027008 297.305939 C 335.358154 296.514465 334.689301 295.722992 333.999817 294.99765 C 333.999817 294.99765 334.066833 295.015198 333.905579 294.481171 C 333.596283 294.294586 333.286957 294.108032 332.986725 294.017426 C 332.986725 294.017426 333.082672 294.008545 332.973846 293.311035 C 332.283142 292.409027 331.592438 291.50705 330.963196 290.5047 C 330.963196 290.5047 330.862701 290.443481 330.948273 289.768005 C 330.636169 289.488403 330.324097 289.208832 330.004456 288.999237 C 330.004456 288.999237 330.074554 289.005798 329.914062 288.475281 C 329.605164 288.294861 329.296265 288.114441 329.000732 288.004272 C 329.000732 288.004272 329.070984 287.990997 329.013306 287.307373 C 328.017029 286.181641 327.020721 285.055908 326.012421 283.992493 C 326.012421 283.992493 326.075562 283.98587 326.001526 283.268372 C 323.310944 280.084778 320.620331 276.901184 317.63916 273.134491 C 315.94754 271.156494 314.528503 268.818329 312.501221 267.283813 C 309.360901 264.90686 309.715302 262.108063 310.589172 259.036224 C 310.97644 257.674835 311.560913 256.37088 312.000275 255.02272 C 313.183929 251.390854 313.544098 247.176224 315.669983 244.231781 C 319.979584 238.262802 325.317505 233.045898 330.087219 227.397141 C 336.511627 219.788773 342.869293 212.121262 349.108795 204.361099 C 351.293701 201.643707 352.497162 198.052155 356.761627 197.56015 C 357.278809 197.500488 357.559601 195.391739 358.537201 193.906311 C 359.427063 192.925812 360.316956 191.945312 361.544525 190.975433 C 361.544525 190.975433 361.853088 190.837799 362.624359 190.785645 C 363.783325 186.72464 366.27948 184.119003 370.467529 183.001953 C 371.317322 182.775284 372.52356 180.603455 372.395752 180.472885 C 369.175903 177.182083 372.956512 177.067276 374.39444 176.081619 C 375.822296 175.102875 377.703094 174.663498 378.893341 173.489059 C 380.519348 171.884628 381.397156 169.865005 378.012238 168.98941 C 378.012238 168.98941 378.071136 168.96788 378.037262 168.303345 C 378.713745 167.205261 379.390198 166.107162 380.816925 164.954498 C 384.219635 163.214539 389.367554 163.289795 388.94754 157.067322 C 384.023804 156.768799 379.719208 157.489731 375.495361 161.033005 C 363.406372 162.82048 353.287048 169.567108 342.397064 174.335892 C 338.462433 176.058884 334.999451 178.85878 330.56839 181.0327 C 329.593964 181.726074 328.619568 182.419449 327.455292 183.042267 C 327.455292 183.042267 327.293121 183.163589 326.564331 182.922058 C 326.622528 182.232727 326.455017 181.409775 326.772308 180.87384 C 332.8013 170.69046 337.143463 160.022385 335.971924 147.872498 C 335.589539 143.907196 334.708069 139.990021 334.694977 135.804184 C 340.577911 130.486755 343.13916 123.50351 340.424805 116.384743 C 338.680298 111.809517 340.013367 109.140335 341.716095 105.645821 C 342.564514 103.90461 342.587341 101.761108 343.344574 99.139816 C 343.584961 96.069656 344.29071 92.949074 343.964661 89.940292 C 343.366577 84.420929 342.938324 79.091911 346.34549 74.22831 C 346.791901 73.591087 346.934967 72.741371 347.806915 71.62188 C 350.910248 66.166008 351.35907 60.300144 350.600708 53.205917 C 348.077332 54.252441 346.005402 55.111736 343.993134 55.987534 C 343.993134 55.987534 343.984558 55.926247 343.279907 55.996193 C 340.830963 57.984905 338.381989 59.973621 335.990845 61.98558 C 335.990845 61.98558 335.970245 61.9268 335.251862 61.974895 C 330.477814 66.306252 325.703735 70.637611 320.98822 74.988388 C 320.98822 74.988388 320.96817 74.930061 320.302185 75.169266 C 318.130798 76.995667 315.521698 78.49472 313.866852 80.70742 C 307.96582 88.597504 302.360779 96.710396 296.73053 104.7994 C 296.120056 105.676437 296.074127 106.946434 295.412994 108.088341 C 295.172028 108.21405 295.063293 108.412292 294.365112 108.973511 C 293.858734 109.982254 293.352356 110.990997 292.973694 111.988327 C 292.973694 111.988327 292.962036 111.860603 292.348572 112.175941 C 290.529327 114.781898 288.710052 117.387848 286.979156 119.988464 C 286.979156 119.988464 286.973572 119.900124 286.335846 120.171829 C 284.580994 123.026535 282.826141 125.881241 280.79895 128.844269 C 280.79895 128.844269 280.669434 129.107178 280.32608 129.213654 C 280.086304 129.38443 280.036133 129.599884 279.972473 130.349518 C 279.673157 130.776474 279.37384 131.203445 278.560852 131.986053 C 278.345886 132.32692 278.130951 132.667801 277.979858 132.987915 C 277.979858 132.987915 277.950836 132.927353 277.388947 133.051605 C 276.90918 133.635498 276.429382 134.219391 275.285156 135.09491 C 272.248566 140.990814 269.211975 146.886719 265.924957 153.476395 C 265.3237 154.440292 264.702881 155.392593 264.124176 156.369843 C 254.266403 173.016678 247.119751 190.531494 246.97879 210.265152 C 246.929779 217.127518 243.51091 220.556808 235.796432 220.393555 C 234.51442 219.876648 233.232422 219.359741 231.876968 218.435623 C 231.722794 218.164932 231.490433 218.041992 230.941803 217.532211 C 230.621292 217.333023 230.300781 217.133835 229.986557 217.017426 C 229.986557 217.017426 230.069351 217.011368 229.927353 216.466858 C 229.613205 216.286301 229.299057 216.105728 228.997116 216.001678 C 228.997116 216.001678 229.073639 215.989548 228.809998 215.373764 C 227.070908 213.972626 225.331802 212.571487 223.467957 211.030289 C 223.467957 211.030289 223.289185 211.087036 223.026352 210.39798 C 221.68689 209.236374 220.347443 208.074768 219.011719 206.983536 C 219.011719 206.983536 219.082031 206.978836 218.825104 206.35466 C 217.554947 205.542877 216.284805 204.731094 215.011871 203.983368 C 215.011871 203.983368 215.07428 203.968536 214.836563 203.301804 C 211.88678 201.840149 208.936996 200.378479 206.005661 198.993958 C 206.005661 198.993958 206.082794 198.975418 205.794983 198.295654 C 194.05632 191.052063 182.129303 191.398529 170.519333 198.20224 C 166.213943 200.725296 162.737198 204.662369 158.296082 208.270432 C 157.106354 209.862457 155.916611 211.454468 154.390289 213.096527 C 154.162415 213.218262 154.060135 213.407761 153.375381 213.926971 C 152.835403 214.601654 152.295425 215.276321 151.145844 216.238464 C 148.96019 219.79631 146.772644 223.352997 144.58934 226.912277 C 141.155655 232.509979 138.411133 238.758926 132.332199 242.112473 C 121.321098 248.186905 110.101891 253.888229 99.170029 260.098206 C 97.271492 261.176697 94.849297 264.427307 95.280037 265.922333 C 96.491051 270.12558 99.387741 267.315155 101.458313 266.181732 C 113.394699 259.647736 125.548683 253.452698 137.096252 246.284653 C 147.117126 240.06427 156.939957 237.10907 168.479858 243.000443 C 168.479858 243.000443 168.946701 243.116333 169.235214 243.758987 C 175.572968 248.587799 183.395401 248.916901 191.382507 251.055038 C 196.213547 255.532547 200.839203 260.259644 205.91658 264.437805 C 218.060715 274.431274 230.006561 284.745758 242.813843 293.828918 C 253.768356 301.598053 265.392975 308.672913 279.118805 312.594757 C 286.25238 315.239441 288.710541 320.492096 288.057312 327.832031 C 287.720947 331.611237 287.76944 335.499298 288.244904 339.262268 C 289.712921 350.880737 291.469879 362.462677 293.324371 374.781311 C 294.554443 378.605011 295.784515 382.428711 297.309662 387.169678 C 303.719025 380.962067 300.518463 373.27948 303.940094 366.641815 C 305.47403 370.11377 306.658234 373.050781 308.05368 375.883728 C 309.587097 378.996887 311.314972 382.014282 313.003754 385.838684 C 313.919037 388.220886 314.83432 390.603058 316.083344 393.58432 C 317.326904 393.25296 319.320099 393.268951 319.66626 392.52179 C 320.528931 390.659912 320.74939 388.465485 321.035065 386.378204 C 321.729065 381.307343 322.313599 376.221436 323.170074 371.722687 C 323.769928 371.844696 324.369781 371.966705 325.006439 372.007477 C 325.006439 372.007477 324.925262 371.970459 325.095459 372.506775 C 325.40683 372.696259 325.718231 372.885773 326.005371 372.982056 C 326.005371 372.982056 325.912109 373.006165 326.038696 373.559448 C 326.35788 373.731842 326.677094 373.904236 327.002991 373.995483 C 327.002991 373.995483 326.921906 373.988617 327.078918 374.526886 C 327.392242 374.706207 327.705597 374.885529 328.011993 374.982422 C 328.011993 374.982422 327.929596 374.989166 328.073425 375.528503 C 328.384186 375.709442 328.694977 375.89035 328.999115 376.00058 C 328.999115 376.00058 328.928406 376.007324 329.006409 376.708679 C 329.66748 377.171265 330.328552 377.63385 330.997253 378.009644 C 330.997253 378.009644 330.910461 378.002136 331.025574 378.742432 C 331.325958 379.305176 331.490234 380.045685 331.951233 380.39856 C 333.585602 381.649445 335.321289 382.768005 337.018585 383.936676 C 337.658386 382.102478 338.847992 380.264709 338.836151 378.434753 C 338.79895 372.686005 338.27121 366.941559 338.071838 361.190613 C 338.056549 360.749084 339.123413 360.27005 340.287354 360.029785 C 340.579834 360.322998 340.872314 360.61618 341.04895 361.648346 C 342.008301 363.331329 343.310242 364.908295 343.869568 366.715088 C 346.784882 376.132721 355.657135 375.168579 362.161194 378.318726 C 362.593597 377.936371 363.026001 377.554047 363.458405 377.171722 C 362.625336 375.695618 361.792267 374.219513 360.843018 372.3255 C 360.65625 372.075043 360.406708 371.945862 359.979736 371.357239 C 359.692596 370.900726 359.405457 370.444183 359.004059 369.349792 C 358.659424 368.868774 358.314789 368.387756 357.935944 367.583282 C 357.935944 367.583282 357.790131 367.292542 357.946442 366.523529 C 357.946442 364.702606 357.946442 362.881683 357.946442 360.107788 C 360.865906 362.367004 362.516968 363.644684 364.227509 365.665497 C 364.765411 366.283142 365.18573 367.189087 365.862885 367.465271 C 368.046783 368.355988 370.325287 369.01474 372.567322 369.762909 C 372.699982 368.223816 373.034576 366.671082 372.931519 365.147949 C 372.385162 357.075745 369.302155 350.032837 364.008118 343.993042 C 364.008118 343.993042 364.075775 344.014282 363.924225 343.470001 C 363.610107 343.284332 363.296021 343.098633 362.974335 343.014252 C 362.974335 343.014252 363.075562 343.022095 362.916718 342.480347 C 362.603302 342.293304 362.289917 342.106293 361.97641 342.023285 C 361.97641 342.023285 362.080444 342.023682 361.916809 341.481049 z" stroke-linecap="round"/>
</g>
		<g transform="matrix(1 0 0 1 11.3316 -25.5443)" id="Layer_1">
<path style="stroke: none; stroke-width: 1; stroke-dasharray: none; stroke-linecap: butt; stroke-dashoffset: 0; stroke-linejoin: miter; stroke-miterlimit: 4; is-custom-font: none; font-file-url: none; fill: rgb(160,210,5); fill-rule: nonzero; opacity: 1;" transform=" translate(-261.3317, -224.4558)" d="M 360.094391 371.937988 C 360.406708 371.945862 360.65625 372.075043 360.84903 372.869934 C 360.434357 374.04245 360.076935 375.156952 359.582977 375.22113 C 355.830048 375.709015 348.650909 371.018127 346.637756 367.559448 C 345.212372 365.110565 343.016632 363.110046 341.164795 360.909393 C 340.872314 360.61618 340.579834 360.322998 339.930176 359.656128 C 337.000671 358.118317 336.216431 358.475433 336.274414 361.616974 C 336.347687 365.58783 337.034821 369.54361 337.248505 373.517151 C 337.367798 375.735626 337.064209 377.976868 336.951172 380.207855 C 334.937622 379.472595 332.924042 378.737366 330.910461 378.002136 C 330.910461 378.002136 330.997253 378.009644 330.94104 377.735474 C 330.232666 376.976685 329.580536 376.492004 328.928406 376.007324 C 328.928406 376.007324 328.999115 376.00058 328.898041 375.79071 C 328.507843 375.383636 328.218719 375.186401 327.929596 374.989166 C 327.929596 374.989166 328.011993 374.982422 327.876282 374.802856 C 327.467712 374.411713 327.194794 374.200165 326.921906 373.988617 C 326.921906 373.988617 327.002991 373.995483 326.91394 373.774963 C 326.520599 373.371704 326.21637 373.188934 325.912109 373.006165 C 325.912109 373.006165 326.005371 372.982056 325.841064 372.836975 C 325.426239 372.451385 325.175751 372.210907 324.925262 371.970459 C 324.925262 371.970459 325.006439 372.007477 325.004578 371.746216 C 324.355072 370.798431 323.707397 370.111877 322.68811 369.414307 C 321.598145 370.697113 320.487244 371.92337 320.250244 373.300049 C 319.85907 375.572235 320.444916 378.047577 319.880035 380.247528 C 318.772034 384.562469 317.15564 388.746857 315.749634 392.98526 C 314.83432 390.603058 313.919037 388.220886 312.950439 385.070282 C 310.570068 377.570068 309.519348 370.205017 302.162933 365.001251 C 301.09259 370.425079 300.022278 375.848907 298.951935 381.272736 C 298.52832 381.226044 298.104706 381.179382 297.681091 381.13269 C 296.599579 377.94577 295.518036 374.75885 294.416199 371.140289 C 292.860657 355.19458 291.363495 339.676544 289.745819 324.171082 C 289.524811 322.052612 289.020813 319.841003 288.091858 317.944916 C 286.246857 314.179016 283.409607 311.553253 278.768066 311.936218 C 265.392975 308.672913 253.768356 301.598053 242.813843 293.828918 C 230.006561 284.745758 218.060715 274.431274 205.91658 264.437805 C 200.839203 260.259644 196.213547 255.532547 190.935715 250.637756 C 183.308182 247.852417 176.127441 245.484375 168.946701 243.116333 C 168.946701 243.116333 168.479858 243.000443 168.1492 242.597321 C 163.508926 236.362015 157.231506 237.337692 151.474182 238.11058 C 146.825363 238.734665 142.36882 240.791016 137.500748 242.314041 C 142.84581 233.407654 148.004395 224.811981 153.159271 216.159744 C 153.155563 216.10318 153.074554 216.023849 153.271286 215.883942 C 153.711838 215.527527 153.913376 215.276993 154.097076 214.660767 C 154.108826 214.107742 154.09613 213.886398 154.08342 213.665054 C 154.060135 213.407761 154.162415 213.218262 154.935043 213.04245 C 157.015396 211.366028 158.55101 209.743683 160.095398 208.09938 C 160.104172 208.077423 160.057297 208.071045 160.311829 207.989944 C 160.986374 207.595444 161.406387 207.282043 162.075775 206.736725 C 173.448181 196.946289 185.765457 192.364258 200.398254 197.317184 C 202.26619 197.949432 204.186661 198.426483 206.082794 198.975418 C 206.082794 198.975418 206.005661 198.993958 206.171768 199.24765 C 209.250015 200.990402 212.16214 202.479462 215.07428 203.968536 C 215.07428 203.968536 215.011871 203.983368 215.08783 204.29071 C 216.469864 205.391632 217.77594 206.185226 219.082031 206.978836 C 219.082031 206.978836 219.011719 206.983536 219.081207 207.289856 C 220.530182 208.759796 221.909683 209.923416 223.289185 211.087036 C 223.289185 211.087036 223.467957 211.030289 223.66095 211.434174 C 225.593842 213.221878 227.33374 214.605713 229.073639 215.989548 C 229.073639 215.989548 228.997116 216.001678 229.115692 216.195541 C 229.512619 216.596725 229.790985 216.804047 230.069351 217.011383 C 230.069351 217.011368 229.986557 217.017426 230.144974 217.201263 C 230.595566 217.61232 230.887726 217.839554 231.179901 218.066772 C 231.490433 218.041992 231.722794 218.164932 232.071136 218.962158 C 233.560806 219.993744 234.856339 220.498795 236.151855 221.00383 C 243.51091 220.556808 246.929779 217.127518 246.97879 210.265152 C 247.119751 190.531494 254.266403 173.016678 264.124176 156.369843 C 264.702881 155.392593 265.3237 154.440292 266.332581 153.00354 C 269.868713 147.422012 272.997192 142.313354 276.409485 136.995453 C 277.112457 135.499939 277.531647 134.213654 277.950867 132.927353 C 277.950836 132.927353 277.979858 132.987915 278.205231 132.831421 C 278.645233 132.326736 278.859863 131.978561 279.074524 131.630386 C 279.37384 131.203445 279.673157 130.776474 280.152832 129.976288 C 280.440643 129.434616 280.552704 129.269318 280.669434 129.107178 C 280.669434 129.107178 280.79895 128.844269 281.224213 128.690399 C 283.424164 125.657715 285.198883 122.778923 286.973572 119.900131 C 286.973572 119.900124 286.979156 119.988464 287.27179 119.90023 C 289.363617 117.16153 291.162811 114.51107 292.962036 111.860603 C 292.962036 111.860603 292.973694 111.988327 293.231293 111.844299 C 294.021545 110.694542 294.554199 109.688805 295.086853 108.683075 C 295.063293 108.412292 295.172028 108.21405 295.915344 107.930923 C 297.37793 106.865616 298.478424 106.066032 299.276489 105.032837 C 306.178314 96.097763 313.04953 87.13858 319.850983 78.12706 C 320.498535 77.269073 320.608582 76.005394 320.96817 74.930054 C 320.96817 74.930061 320.98822 74.988388 321.320374 74.996735 C 326.42511 70.645645 331.197662 66.286217 335.970245 61.926796 C 335.970245 61.9268 335.990845 61.98558 336.336548 62.023926 C 339.116364 60.016933 341.550476 57.971596 343.984558 55.92625 C 343.984558 55.926247 343.993134 55.987534 344.384277 56.018005 C 348.386017 55.604195 349.53894 57.607105 349.127167 60.736286 C 348.631104 64.505989 347.86676 68.240395 347.218567 71.990067 C 346.934967 72.741371 346.791901 73.591087 346.34549 74.22831 C 342.938324 79.091911 343.366577 84.420929 343.964661 89.940292 C 344.29071 92.949074 343.584961 96.069656 342.946136 99.746033 C 340.853699 104.398346 336.910004 109.135757 337.899933 112.357086 C 340.555756 120.999504 339.03949 127.974449 333.573059 134.964005 C 333.105469 136.731049 332.512939 138.363983 332.80249 139.821716 C 335.371948 152.757324 333.6875 164.944641 326.885132 176.349136 C 326.038208 177.769012 325.336121 179.317444 324.835602 180.891739 C 324.120209 183.141663 324.806396 184.210464 327.293121 183.163589 C 327.293121 183.163589 327.455292 183.042267 327.921173 183.073334 C 329.365112 182.458694 330.343201 181.812988 331.321259 181.167267 C 334.999451 178.85878 338.462433 176.058884 342.397064 174.335892 C 353.287048 169.567108 363.406372 162.82048 376.166321 161.143524 C 379.443085 160.524323 382.048889 159.794601 384.654694 159.06488 C 384.824005 159.511322 384.993286 159.957764 385.162598 160.404205 C 383.232971 161.757599 381.303345 163.110992 379.05545 164.544373 C 377.790802 165.637329 376.844421 166.650299 375.898071 167.663269 C 376.622437 168.098145 377.346771 168.53302 378.071136 168.96788 C 378.071136 168.96788 378.012238 168.98941 377.943848 169.324799 C 376.588409 171.177536 375.552032 173.076157 373.956909 174.125046 C 371.41214 175.798355 367.940796 176.310608 368.128448 180.53656 C 368.157654 181.194229 366.75946 181.814636 366.301392 182.612961 C 364.750732 185.315628 363.325989 188.090515 361.853088 190.837799 C 361.853088 190.837799 361.544525 190.975433 361.00647 191.01886 C 359.628937 192.11908 358.789429 193.175858 357.949921 194.232635 C 357.559601 195.391739 357.278809 197.500488 356.761627 197.56015 C 352.497162 198.052155 351.293701 201.643707 349.108795 204.361099 C 342.869293 212.121262 336.511627 219.788773 330.087219 227.397141 C 325.317505 233.045898 319.979584 238.262802 315.669983 244.231781 C 313.544098 247.176224 313.183929 251.390854 312.000275 255.02272 C 311.560913 256.37088 310.97644 257.674835 310.589172 259.036224 C 309.715302 262.108063 309.360901 264.90686 312.501221 267.283813 C 314.528503 268.818329 315.94754 271.156494 317.819275 273.809326 C 320.691467 277.651367 323.383514 280.818634 326.075562 283.98587 C 326.075562 283.98587 326.012421 283.992493 326.008453 284.31958 C 327.026642 285.761414 328.048828 286.876221 329.070984 287.990997 C 329.070984 287.990997 329.000732 288.004272 329.122009 288.197021 C 329.520386 288.595093 329.797455 288.800446 330.074554 289.005798 C 330.074554 289.005798 330.004456 288.999237 330.070129 289.254456 C 330.378082 289.820953 330.620392 290.132202 330.862701 290.443481 C 330.862701 290.443481 330.963196 290.5047 330.941467 290.928619 C 331.640747 292.237885 332.361694 293.123199 333.082672 294.008545 C 333.082672 294.008545 332.986725 294.017426 333.124451 294.188599 C 333.530396 294.578247 333.798615 294.796722 334.066833 295.015198 C 334.066833 295.015198 333.999817 294.99765 334.004028 295.309021 C 334.699188 296.405701 335.390106 297.19101 336.081024 297.976318 C 336.081024 297.976318 336.019135 297.988831 336.05542 298.267517 C 336.353638 298.861694 336.615601 299.177216 336.877594 299.492706 C 336.877594 299.492706 336.941437 299.522644 336.931396 299.929993 C 337.641296 301.223938 338.361176 302.110504 339.081085 302.997101 C 339.081085 302.997101 339.014069 302.989868 339.0047 303.340149 C 343.026154 312.001465 346.987213 320.347565 351.138977 328.597687 C 352.126068 330.559143 353.751465 332.199341 355.083252 333.987305 C 355.083252 333.987305 355.018646 333.983154 354.997192 334.295349 C 355.680817 335.406769 356.385895 336.205963 357.090973 337.005127 C 357.090973 337.005127 356.989716 337.026093 357.14801 337.176056 C 357.564392 337.561371 357.822449 337.796722 358.080536 338.032074 C 358.080536 338.032074 357.983643 338.007843 358.048096 338.30307 C 359.107452 339.394409 360.102356 340.190521 361.09726 340.986664 C 361.09726 340.986664 361.000793 341.015106 361.150146 341.171509 C 361.559814 341.559845 361.820129 341.791779 362.080444 342.023682 C 362.080444 342.023682 361.97641 342.023285 362.135986 342.177673 C 362.555573 342.562042 362.815582 342.792084 363.075562 343.022095 C 363.075562 343.022095 362.974335 343.014252 363.118652 343.186157 C 363.533936 343.576813 363.80484 343.795563 364.075775 344.014282 C 364.075775 344.014282 364.008118 343.993042 363.989746 344.343628 C 365.801849 348.946899 367.707184 353.169312 369.445648 357.45932 C 372.209442 364.279358 371.384644 365.39563 364.16806 364.922363 C 362.516968 363.644684 360.865906 362.367004 357.946442 360.107788 C 357.946442 362.881683 357.946442 364.702606 357.904785 366.974548 C 357.863098 367.425568 357.970154 367.906738 357.970154 367.906738 C 358.314789 368.387756 358.659424 368.868774 358.963501 369.869843 C 359.313416 370.905914 359.703918 371.421936 360.094391 371.937988 z" stroke-linecap="round"/>
</g>
		<g transform="matrix(1 0 0 1 -118.4249 -7.847)" id="Layer_1">
<path style="stroke: none; stroke-width: 1; stroke-dasharray: none; stroke-linecap: butt; stroke-dashoffset: 0; stroke-linejoin: miter; stroke-miterlimit: 4; is-custom-font: none; font-file-url: none; fill: rgb(173,208,58); fill-rule: nonzero; opacity: 1;" transform=" translate(-131.5751, -242.153)" d="M 153.162979 216.216309 C 148.004395 224.811981 142.84581 233.407654 137.500748 242.314041 C 142.36882 240.791016 146.825363 238.734665 151.474182 238.11058 C 157.231506 237.337692 163.508926 236.362015 167.920578 242.522614 C 156.939957 237.10907 147.117126 240.06427 137.096252 246.284653 C 125.548683 253.452698 113.394699 259.647736 101.458313 266.181732 C 99.387741 267.315155 96.491051 270.12558 95.280037 265.922333 C 94.849297 264.427307 97.271492 261.176697 99.170029 260.098206 C 110.101891 253.888229 121.321098 248.186905 132.332199 242.112473 C 138.411133 238.758926 141.155655 232.509979 144.58934 226.912277 C 146.772644 223.352997 148.96019 219.79631 151.802643 216.161682 C 152.69397 216.128708 152.928482 216.172516 153.162979 216.216309 M 134.466278 244.50563 C 134.466278 244.50563 134.523666 244.481522 134.466278 244.50563 M 132.508408 245.463165 C 132.508408 245.463165 132.534119 245.519653 132.508408 245.463165 z" stroke-linecap="round"/>
</g>
		<g transform="matrix(1 0 0 1 36.6159 93.1038)" id="Layer_1">
<path style="stroke: none; stroke-width: 1; stroke-dasharray: none; stroke-linecap: butt; stroke-dashoffset: 0; stroke-linejoin: miter; stroke-miterlimit: 4; is-custom-font: none; font-file-url: none; fill: rgb(190,217,97); fill-rule: nonzero; opacity: 1;" transform=" translate(-286.616, -343.1038)" d="M 278.94342 312.265503 C 283.409607 311.553253 286.246857 314.179016 288.091858 317.944916 C 289.020813 319.841003 289.524811 322.052612 289.745819 324.171082 C 291.363495 339.676544 292.860657 355.19458 294.288513 371.474304 C 293.825653 372.846252 293.470123 373.452515 293.114624 374.058807 C 291.469879 362.462677 289.712921 350.880737 288.244904 339.262268 C 287.76944 335.499298 287.720947 331.611237 288.057312 327.832031 C 288.710541 320.492096 286.25238 315.239441 278.94342 312.265503 z" stroke-linecap="round"/>
</g>
		<g transform="matrix(1 0 0 1 53.0736 126.0855)" id="Layer_1">
<path style="stroke: none; stroke-width: 1; stroke-dasharray: none; stroke-linecap: butt; stroke-dashoffset: 0; stroke-linejoin: miter; stroke-miterlimit: 4; is-custom-font: none; font-file-url: none; fill: rgb(179,212,76); fill-rule: nonzero; opacity: 1;" transform=" translate(-303.0736, -376.0855)" d="M 293.219482 374.420044 C 293.470123 373.452515 293.825653 372.846252 294.308838 371.905945 C 295.518036 374.75885 296.599579 377.94577 297.681091 381.13269 C 298.104706 381.179382 298.52832 381.226044 298.951935 381.272736 C 300.022278 375.848907 301.09259 370.425079 302.162933 365.001251 C 309.519348 370.205017 310.570068 377.570068 312.927643 384.687622 C 311.314972 382.014282 309.587097 378.996887 308.05368 375.883728 C 306.658234 373.050781 305.47403 370.11377 303.940094 366.641815 C 300.518463 373.27948 303.719025 380.962067 297.309662 387.169678 C 295.784515 382.428711 294.554443 378.605011 293.219482 374.420044 z" stroke-linecap="round"/>
</g>
		<g transform="matrix(1 0 0 1 80.3629 -90.5946)" id="Layer_1">
<path style="stroke: none; stroke-width: 1; stroke-dasharray: none; stroke-linecap: butt; stroke-dashoffset: 0; stroke-linejoin: miter; stroke-miterlimit: 4; is-custom-font: none; font-file-url: none; fill: rgb(179,212,76); fill-rule: nonzero; opacity: 1;" transform=" translate(-330.3629, -159.4053)" d="M 326.928711 183.042816 C 324.806396 184.210464 324.120209 183.141663 324.835602 180.891739 C 325.336121 179.317444 326.038208 177.769012 326.885132 176.349136 C 333.6875 164.944641 335.371948 152.757324 332.80249 139.821716 C 332.512939 138.363983 333.105469 136.731049 333.62674 135.289871 C 333.994659 135.617203 334.02478 135.83403 334.054871 136.050842 C 334.708069 139.990021 335.589539 143.907196 335.971924 147.872498 C 337.143463 160.022385 332.8013 170.69046 326.772308 180.87384 C 326.455017 181.409775 326.622528 182.232727 326.928711 183.042816 z" stroke-linecap="round"/>
</g>
		<g transform="matrix(1 0 0 1 -67.5892 -49.4522)" id="Layer_1">
<path style="stroke: none; stroke-width: 1; stroke-dasharray: none; stroke-linecap: butt; stroke-dashoffset: 0; stroke-linejoin: miter; stroke-miterlimit: 4; is-custom-font: none; font-file-url: none; fill: rgb(179,212,76); fill-rule: nonzero; opacity: 1;" transform=" translate(-182.4107, -200.5478)" d="M 205.938889 198.635529 C 204.186661 198.426483 202.26619 197.949432 200.398254 197.317184 C 185.765457 192.364258 173.448181 196.946289 161.828278 206.823196 C 160.906708 207.451416 160.481995 207.76123 160.057297 208.071045 C 160.057297 208.071045 160.104172 208.077423 159.79425 208.056244 C 159.283752 208.008255 159.08316 207.98143 158.882568 207.95459 C 162.737198 204.662369 166.213943 200.725296 170.519333 198.20224 C 182.129303 191.398529 194.05632 191.052063 205.938889 198.635529 z" stroke-linecap="round"/>
</g>
		<g transform="matrix(1 0 0 1 58.3621 -158.5232)" id="Layer_1">
<path style="stroke: none; stroke-width: 1; stroke-dasharray: none; stroke-linecap: butt; stroke-dashoffset: 0; stroke-linejoin: miter; stroke-miterlimit: 4; is-custom-font: none; font-file-url: none; fill: rgb(181,210,84); fill-rule: nonzero; opacity: 1;" transform=" translate(-308.3621, -91.4767)" d="M 320.635193 75.04966 C 320.608582 76.005394 320.498535 77.269073 319.850983 78.12706 C 313.04953 87.13858 306.178314 96.097763 299.276489 105.032837 C 298.478424 106.066032 297.37793 106.865616 296.09198 107.903839 C 296.074127 106.946434 296.120056 105.676437 296.73053 104.7994 C 302.360779 96.710396 307.96582 88.597504 313.866852 80.70742 C 315.521698 78.49472 318.130798 76.995667 320.635193 75.04966 z" stroke-linecap="round"/>
</g>
		<g transform="matrix(1 0 0 1 118.4757 107.0363)" id="Layer_1">
<path style="stroke: none; stroke-width: 1; stroke-dasharray: none; stroke-linecap: butt; stroke-dashoffset: 0; stroke-linejoin: miter; stroke-miterlimit: 4; is-custom-font: none; font-file-url: none; fill: rgb(181,210,84); fill-rule: nonzero; opacity: 1;" transform=" translate(-368.4757, -357.0364)" d="M 364.197784 365.293945 C 371.384644 365.39563 372.209442 364.279358 369.445648 357.45932 C 367.707184 353.169312 365.801849 348.946899 364.000458 344.309814 C 369.302155 350.032837 372.385162 357.075745 372.931519 365.147949 C 373.034576 366.671082 372.699982 368.223816 372.567322 369.762909 C 370.325287 369.01474 368.046783 368.355988 365.862885 367.465271 C 365.18573 367.189087 364.765411 366.283142 364.197784 365.293945 z" stroke-linecap="round"/>
</g>
		<g transform="matrix(1 0 0 1 88.3382 -131.9983)" id="Layer_1">
<path style="stroke: none; stroke-width: 1; stroke-dasharray: none; stroke-linecap: butt; stroke-dashoffset: 0; stroke-linejoin: miter; stroke-miterlimit: 4; is-custom-font: none; font-file-url: none; fill: rgb(181,210,84); fill-rule: nonzero; opacity: 1;" transform=" translate(-338.3382, -118.0017)" d="M 334.374939 135.927521 C 334.02478 135.83403 333.994659 135.617203 333.910828 135.074524 C 339.03949 127.974449 340.555756 120.999504 337.899933 112.357086 C 336.910004 109.135757 340.853699 104.398346 342.765625 100.075912 C 342.587341 101.761108 342.564514 103.90461 341.716095 105.645821 C 340.013367 109.140335 338.680298 111.809517 340.424805 116.384743 C 343.13916 123.50351 340.577911 130.486755 334.374939 135.927521 z" stroke-linecap="round"/>
</g>
		<g transform="matrix(1 0 0 1 121.2818 -69.9461)" id="Layer_1">
<path style="stroke: none; stroke-width: 1; stroke-dasharray: none; stroke-linecap: butt; stroke-dashoffset: 0; stroke-linejoin: miter; stroke-miterlimit: 4; is-custom-font: none; font-file-url: none; fill: rgb(181,210,84); fill-rule: nonzero; opacity: 1;" transform=" translate(-371.2819, -180.0539)" d="M 362.238708 190.811722 C 363.325989 188.090515 364.750732 185.315628 366.301392 182.612961 C 366.75946 181.814636 368.157654 181.194229 368.128448 180.53656 C 367.940796 176.310608 371.41214 175.798355 373.956909 174.125046 C 375.552032 173.076157 376.588409 171.177536 377.956604 169.296143 C 381.397156 169.865005 380.519348 171.884628 378.893341 173.489059 C 377.703094 174.663498 375.822296 175.102875 374.39444 176.081619 C 372.956512 177.067276 369.175903 177.182083 372.395752 180.472885 C 372.52356 180.603455 371.317322 182.775284 370.467529 183.001953 C 366.27948 184.119003 363.783325 186.72464 362.238708 190.811722 z" stroke-linecap="round"/>
</g>
		<g transform="matrix(1 0 0 1 85.2991 121.3406)" id="Layer_1">
<path style="stroke: none; stroke-width: 1; stroke-dasharray: none; stroke-linecap: butt; stroke-dashoffset: 0; stroke-linejoin: miter; stroke-miterlimit: 4; is-custom-font: none; font-file-url: none; fill: rgb(181,210,84); fill-rule: nonzero; opacity: 1;" transform=" translate(-335.2991, -371.3406)" d="M 330.968018 378.372284 C 332.924042 378.737366 334.937622 379.472595 336.951172 380.207855 C 337.064209 377.976868 337.367798 375.735626 337.248505 373.517151 C 337.034821 369.54361 336.347687 365.58783 336.274414 361.616974 C 336.216431 358.475433 337.000671 358.118317 339.630127 359.545471 C 339.123413 360.27005 338.056549 360.749084 338.071838 361.190613 C 338.27121 366.941559 338.79895 372.686005 338.836151 378.434753 C 338.847992 380.264709 337.658386 382.102478 337.018585 383.936676 C 335.321289 382.768005 333.585602 381.649445 331.951233 380.39856 C 331.490234 380.045685 331.325958 379.305176 330.968018 378.372284 z" stroke-linecap="round"/>
</g>
		<g transform="matrix(1 0 0 1 97.0231 68.4568)" id="Layer_1">
<path style="stroke: none; stroke-width: 1; stroke-dasharray: none; stroke-linecap: butt; stroke-dashoffset: 0; stroke-linejoin: miter; stroke-miterlimit: 4; is-custom-font: none; font-file-url: none; fill: rgb(179,212,76); fill-rule: nonzero; opacity: 1;" transform=" translate(-347.0231, -318.4568)" d="M 355.034058 333.606354 C 353.751465 332.199341 352.126068 330.559143 351.138977 328.597687 C 346.987213 320.347565 343.026154 312.001465 339.012177 303.307312 C 341.712189 307.365906 344.624084 311.688293 347.019592 316.28009 C 349.903931 321.808929 352.349396 327.566742 355.034058 333.606354 z" stroke-linecap="round"/>
</g>
		<g transform="matrix(1 0 0 1 102.2827 119.7988)" id="Layer_1">
<path style="stroke: none; stroke-width: 1; stroke-dasharray: none; stroke-linecap: butt; stroke-dashoffset: 0; stroke-linejoin: miter; stroke-miterlimit: 4; is-custom-font: none; font-file-url: none; fill: rgb(179,212,76); fill-rule: nonzero; opacity: 1;" transform=" translate(-352.2826, -369.7988)" d="M 341.106873 361.27887 C 343.016632 363.110046 345.212372 365.110565 346.637756 367.559448 C 348.650909 371.018127 355.830048 375.709015 359.582977 375.22113 C 360.076935 375.156952 360.434357 374.04245 360.907104 373.078918 C 361.792267 374.219513 362.625336 375.695618 363.458405 377.171722 C 363.026001 377.554047 362.593597 377.936371 362.161194 378.318726 C 355.657135 375.168579 346.784882 376.132721 343.869568 366.715088 C 343.310242 364.908295 342.008301 363.331329 341.106873 361.27887 z" stroke-linecap="round"/>
</g>
		<g transform="matrix(1 0 0 1 69.4376 131.4906)" id="Layer_1">
<path style="stroke: none; stroke-width: 1; stroke-dasharray: none; stroke-linecap: butt; stroke-dashoffset: 0; stroke-linejoin: miter; stroke-miterlimit: 4; is-custom-font: none; font-file-url: none; fill: rgb(168,197,78); fill-rule: nonzero; opacity: 1;" transform=" translate(-319.4376, -381.4906)" d="M 315.916504 393.28479 C 317.15564 388.746857 318.772034 384.562469 319.880035 380.247528 C 320.444916 378.047577 319.85907 375.572235 320.250244 373.300049 C 320.487244 371.92337 321.598145 370.697113 322.672577 369.696503 C 322.999878 370.373688 322.971069 370.757629 322.94223 371.141602 C 322.313599 376.221436 321.729065 381.307343 321.035065 386.378204 C 320.74939 388.465485 320.528931 390.659912 319.66626 392.52179 C 319.320099 393.268951 317.326904 393.25296 315.916504 393.28479 z" stroke-linecap="round"/>
</g>
		<g transform="matrix(1 0 0 1 132.7776 -89.0535)" id="Layer_1">
<path style="stroke: none; stroke-width: 1; stroke-dasharray: none; stroke-linecap: butt; stroke-dashoffset: 0; stroke-linejoin: miter; stroke-miterlimit: 4; is-custom-font: none; font-file-url: none; fill: rgb(190,217,97); fill-rule: nonzero; opacity: 1;" transform=" translate(-382.7776, -160.9465)" d="M 379.373718 164.464386 C 381.303345 163.110992 383.232971 161.757599 385.162598 160.404205 C 384.993286 159.957764 384.824005 159.511322 384.654694 159.06488 C 382.048889 159.794601 379.443085 160.524323 376.583496 161.214539 C 379.719208 157.489731 384.023804 156.768799 388.94754 157.067322 C 389.367554 163.289795 384.219635 163.214539 380.327148 164.886124 C 379.680511 164.702988 379.52597 164.585205 379.373718 164.464386 z" stroke-linecap="round"/>
</g>
		<g transform="matrix(1 0 0 1 -70.1592 -3.0163)" id="Layer_1">
<path style="stroke: none; stroke-width: 1; stroke-dasharray: none; stroke-linecap: butt; stroke-dashoffset: 0; stroke-linejoin: miter; stroke-miterlimit: 4; is-custom-font: none; font-file-url: none; fill: rgb(181,210,84); fill-rule: nonzero; opacity: 1;" transform=" translate(-179.8408, -246.9836)" d="M 169.090958 243.437653 C 176.127441 245.484375 183.308182 247.852417 190.590622 250.529587 C 183.395401 248.916901 175.572968 248.587799 169.090958 243.437653 z" stroke-linecap="round"/>
</g>
		<g transform="matrix(1 0 0 1 97.6357 -187.4941)" id="Layer_1">
<path style="stroke: none; stroke-width: 1; stroke-dasharray: none; stroke-linecap: butt; stroke-dashoffset: 0; stroke-linejoin: miter; stroke-miterlimit: 4; is-custom-font: none; font-file-url: none; fill: rgb(181,210,84); fill-rule: nonzero; opacity: 1;" transform=" translate(-347.6357, -62.5059)" d="M 347.512756 71.805977 C 347.86676 68.240395 348.631104 64.505989 349.127167 60.736286 C 349.53894 57.607105 348.386017 55.604195 344.354462 56.00975 C 346.005402 55.111736 348.077332 54.252441 350.600708 53.205917 C 351.35907 60.300144 350.910248 66.166008 347.512756 71.805977 z" stroke-linecap="round"/>
</g>
		<g transform="matrix(1 0 0 1 78.4511 -181.5311)" id="Layer_1">
<path style="stroke: none; stroke-width: 1; stroke-dasharray: none; stroke-linecap: butt; stroke-dashoffset: 0; stroke-linejoin: miter; stroke-miterlimit: 4; is-custom-font: none; font-file-url: none; fill: rgb(181,210,84); fill-rule: nonzero; opacity: 1;" transform=" translate(-328.4511, -68.4689)" d="M 335.611053 61.950844 C 331.197662 66.286217 326.42511 70.645645 321.291138 74.987015 C 325.703735 70.637611 330.477814 66.306252 335.611053 61.950844 z" stroke-linecap="round"/>
</g>
		<g transform="matrix(1 0 0 1 21.2917 -105.9974)" id="Layer_1">
<path style="stroke: none; stroke-width: 1; stroke-dasharray: none; stroke-linecap: butt; stroke-dashoffset: 0; stroke-linejoin: miter; stroke-miterlimit: 4; is-custom-font: none; font-file-url: none; fill: rgb(190,217,97); fill-rule: nonzero; opacity: 1;" transform=" translate(-271.2917, -144.0026)" d="M 276.125671 137.204681 C 272.997192 142.313354 269.868713 147.422012 266.457794 152.656647 C 269.211975 146.886719 272.248566 140.990814 275.654968 135.34848 C 276.05838 136.136261 276.092041 136.670471 276.125671 137.204681 z" stroke-linecap="round"/>
</g>
		<g transform="matrix(1 0 0 1 72.0016 28.864)" id="Layer_1">
<path style="stroke: none; stroke-width: 1; stroke-dasharray: none; stroke-linecap: butt; stroke-dashoffset: 0; stroke-linejoin: miter; stroke-miterlimit: 4; is-custom-font: none; font-file-url: none; fill: rgb(179,212,76); fill-rule: nonzero; opacity: 1;" transform=" translate(-322.0016, -278.864)" d="M 326.038544 283.627136 C 323.383514 280.818634 320.691467 277.651367 317.964569 274.100861 C 320.620331 276.901184 323.310944 280.084778 326.038544 283.627136 z" stroke-linecap="round"/>
</g>
		<g transform="matrix(1 0 0 1 39.9415 -134.0394)" id="Layer_1">
<path style="stroke: none; stroke-width: 1; stroke-dasharray: none; stroke-linecap: butt; stroke-dashoffset: 0; stroke-linejoin: miter; stroke-miterlimit: 4; is-custom-font: none; font-file-url: none; fill: rgb(181,210,84); fill-rule: nonzero; opacity: 1;" transform=" translate(-289.9415, -115.9606)" d="M 292.655304 112.018272 C 291.162811 114.51107 289.363617 117.16153 287.2276 119.902893 C 288.710052 117.387848 290.529327 114.781898 292.655304 112.018272 z" stroke-linecap="round"/>
</g>
		<g transform="matrix(1 0 0 1 34.0076 -125.6639)" id="Layer_1">
<path style="stroke: none; stroke-width: 1; stroke-dasharray: none; stroke-linecap: butt; stroke-dashoffset: 0; stroke-linejoin: miter; stroke-miterlimit: 4; is-custom-font: none; font-file-url: none; fill: rgb(181,210,84); fill-rule: nonzero; opacity: 1;" transform=" translate(-284.0076, -124.3361)" d="M 286.654724 120.03598 C 285.198883 122.778923 283.424164 125.657715 281.360382 128.63623 C 282.826141 125.881241 284.580994 123.026535 286.654724 120.03598 z" stroke-linecap="round"/>
</g>
		<g transform="matrix(1 0 0 1 89.9699 -191.0133)" id="Layer_1">
<path style="stroke: none; stroke-width: 1; stroke-dasharray: none; stroke-linecap: butt; stroke-dashoffset: 0; stroke-linejoin: miter; stroke-miterlimit: 4; is-custom-font: none; font-file-url: none; fill: rgb(181,210,84); fill-rule: nonzero; opacity: 1;" transform=" translate(-339.9699, -58.9868)" d="M 343.632233 55.961224 C 341.550476 57.971596 339.116364 60.016933 336.307648 62.012306 C 338.381989 59.973621 340.830963 57.984905 343.632233 55.961224 z" stroke-linecap="round"/>
</g>
		<g transform="matrix(1 0 0 1 -39.4411 -48.5779)" id="Layer_1">
<path style="stroke: none; stroke-width: 1; stroke-dasharray: none; stroke-linecap: butt; stroke-dashoffset: 0; stroke-linejoin: miter; stroke-miterlimit: 4; is-custom-font: none; font-file-url: none; fill: rgb(179,212,76); fill-rule: nonzero; opacity: 1;" transform=" translate(-210.559, -201.4221)" d="M 214.955414 203.635162 C 212.16214 202.479462 209.250015 200.990402 206.162537 199.209076 C 208.936996 200.378479 211.88678 201.840149 214.955414 203.635162 z" stroke-linecap="round"/>
</g>
		<g transform="matrix(1 0 0 1 127.9251 -83.41)" id="Layer_1">
<path style="stroke: none; stroke-width: 1; stroke-dasharray: none; stroke-linecap: butt; stroke-dashoffset: 0; stroke-linejoin: miter; stroke-miterlimit: 4; is-custom-font: none; font-file-url: none; fill: rgb(181,210,84); fill-rule: nonzero; opacity: 1;" transform=" translate(-377.925, -166.59)" d="M 379.05545 164.544373 C 379.52597 164.585205 379.680511 164.702988 379.952026 164.913406 C 379.390198 166.107162 378.713745 167.205261 378.054199 168.63562 C 377.346771 168.53302 376.622437 168.098145 375.898071 167.663269 C 376.844421 166.650299 377.790802 165.637329 379.05545 164.544373 z" stroke-linecap="round"/>
</g>
		<g transform="matrix(1 0 0 1 -92.5556 -39.4814)" id="Layer_1">
<path style="stroke: none; stroke-width: 1; stroke-dasharray: none; stroke-linecap: butt; stroke-dashoffset: 0; stroke-linejoin: miter; stroke-miterlimit: 4; is-custom-font: none; font-file-url: none; fill: rgb(173,208,58); fill-rule: nonzero; opacity: 1;" transform=" translate(-157.4444, -210.5187)" d="M 158.589325 208.112518 C 159.08316 207.98143 159.283752 208.008255 159.785477 208.078217 C 158.55101 209.743683 157.015396 211.366028 155.103333 213.017426 C 155.916611 211.454468 157.106354 209.862457 158.589325 208.112518 z" stroke-linecap="round"/>
</g>
		<g transform="matrix(1 0 0 1 -23.6675 -36.4071)" id="Layer_1">
<path style="stroke: none; stroke-width: 1; stroke-dasharray: none; stroke-linecap: butt; stroke-dashoffset: 0; stroke-linejoin: miter; stroke-miterlimit: 4; is-custom-font: none; font-file-url: none; fill: rgb(179,212,76); fill-rule: nonzero; opacity: 1;" transform=" translate(-226.3326, -213.5929)" d="M 228.941818 215.681656 C 227.33374 214.605713 225.593842 213.221878 223.723328 211.504211 C 225.331802 212.571487 227.070908 213.972626 228.941818 215.681656 z" stroke-linecap="round"/>
</g>
		<g transform="matrix(1 0 0 1 -28.8815 -41.0014)" id="Layer_1">
<path style="stroke: none; stroke-width: 1; stroke-dasharray: none; stroke-linecap: butt; stroke-dashoffset: 0; stroke-linejoin: miter; stroke-miterlimit: 4; is-custom-font: none; font-file-url: none; fill: rgb(179,212,76); fill-rule: nonzero; opacity: 1;" transform=" translate(-221.1186, -208.9986)" d="M 223.157776 210.742523 C 221.909683 209.923416 220.530182 208.759796 219.079346 207.254669 C 220.347443 208.074768 221.68689 209.236374 223.157776 210.742523 z" stroke-linecap="round"/>
</g>
		<g transform="matrix(1 0 0 1 -32.9786 -44.5373)" id="Layer_1">
<path style="stroke: none; stroke-width: 1; stroke-dasharray: none; stroke-linecap: butt; stroke-dashoffset: 0; stroke-linejoin: miter; stroke-miterlimit: 4; is-custom-font: none; font-file-url: none; fill: rgb(179,212,76); fill-rule: nonzero; opacity: 1;" transform=" translate(-217.0214, -205.4627)" d="M 218.953568 206.666748 C 217.77594 206.185226 216.469864 205.391632 215.089218 204.258667 C 216.284805 204.731094 217.554947 205.542877 218.953568 206.666748 z" stroke-linecap="round"/>
</g>
		<g transform="matrix(1 0 0 1 77.5283 35.9688)" id="Layer_1">
<path style="stroke: none; stroke-width: 1; stroke-dasharray: none; stroke-linecap: butt; stroke-dashoffset: 0; stroke-linejoin: miter; stroke-miterlimit: 4; is-custom-font: none; font-file-url: none; fill: rgb(179,212,76); fill-rule: nonzero; opacity: 1;" transform=" translate(-327.5283, -285.9688)" d="M 329.042145 287.64917 C 328.048828 286.876221 327.026642 285.761414 326.014465 284.288391 C 327.020721 285.055908 328.017029 286.181641 329.042145 287.64917 z" stroke-linecap="round"/>
</g>
		<g transform="matrix(1 0 0 1 26.8286 -115.0075)" id="Layer_1">
<path style="stroke: none; stroke-width: 1; stroke-dasharray: none; stroke-linecap: butt; stroke-dashoffset: 0; stroke-linejoin: miter; stroke-miterlimit: 4; is-custom-font: none; font-file-url: none; fill: rgb(181,210,84); fill-rule: nonzero; opacity: 1;" transform=" translate(-276.8286, -134.9925)" d="M 276.409485 136.995453 C 276.092041 136.670471 276.05838 136.136261 275.987183 135.202667 C 276.429382 134.219391 276.90918 133.635498 277.669922 132.989471 C 277.531647 134.213654 277.112457 135.499939 276.409485 136.995453 z" stroke-linecap="round"/>
</g>
		<g transform="matrix(1 0 0 1 109.5566 89.4453)" id="Layer_1">
<path style="stroke: none; stroke-width: 1; stroke-dasharray: none; stroke-linecap: butt; stroke-dashoffset: 0; stroke-linejoin: miter; stroke-miterlimit: 4; is-custom-font: none; font-file-url: none; fill: rgb(179,212,76); fill-rule: nonzero; opacity: 1;" transform=" translate(-359.5566, -339.4453)" d="M 361.05304 340.635925 C 360.102356 340.190521 359.107452 339.394409 358.06012 338.254608 C 359.008087 338.702332 360.008453 339.493744 361.05304 340.635925 z" stroke-linecap="round"/>
</g>
		<g transform="matrix(1 0 0 1 43.9467 -139.6608)" id="Layer_1">
<path style="stroke: none; stroke-width: 1; stroke-dasharray: none; stroke-linecap: butt; stroke-dashoffset: 0; stroke-linejoin: miter; stroke-miterlimit: 4; is-custom-font: none; font-file-url: none; fill: rgb(181,210,84); fill-rule: nonzero; opacity: 1;" transform=" translate(-293.9467, -110.3391)" d="M 294.725983 108.828293 C 294.554199 109.688805 294.021545 110.694542 293.167419 111.850006 C 293.352356 110.990997 293.858734 109.982254 294.725983 108.828293 z" stroke-linecap="round"/>
</g>
		<g transform="matrix(1 0 0 1 -15.959 -30.0677)" id="Layer_1">
<path style="stroke: none; stroke-width: 1; stroke-dasharray: none; stroke-linecap: butt; stroke-dashoffset: 0; stroke-linejoin: miter; stroke-miterlimit: 4; is-custom-font: none; font-file-url: none; fill: rgb(179,212,76); fill-rule: nonzero; opacity: 1;" transform=" translate(-234.041, -219.9322)" d="M 235.974152 220.6987 C 234.856339 220.498795 233.560806 219.993744 232.107849 219.165771 C 233.232422 219.359741 234.51442 219.876648 235.974152 220.6987 z" stroke-linecap="round"/>
</g>
		<g transform="matrix(1 0 0 1 109.5406 -57.4584)" id="Layer_1">
<path style="stroke: none; stroke-width: 1; stroke-dasharray: none; stroke-linecap: butt; stroke-dashoffset: 0; stroke-linejoin: miter; stroke-miterlimit: 4; is-custom-font: none; font-file-url: none; fill: rgb(181,210,84); fill-rule: nonzero; opacity: 1;" transform=" translate(-359.5406, -192.5415)" d="M 358.243561 194.069489 C 358.789429 193.175858 359.628937 192.11908 360.837646 191.01355 C 360.316956 191.945312 359.427063 192.925812 358.243561 194.069489 z" stroke-linecap="round"/>
</g>
		<g transform="matrix(1 0 0 1 106.0278 85.4671)" id="Layer_1">
<path style="stroke: none; stroke-width: 1; stroke-dasharray: none; stroke-linecap: butt; stroke-dashoffset: 0; stroke-linejoin: miter; stroke-miterlimit: 4; is-custom-font: none; font-file-url: none; fill: rgb(179,212,76); fill-rule: nonzero; opacity: 1;" transform=" translate(-356.0278, -335.4671)" d="M 357.048157 336.669434 C 356.385895 336.205963 355.680817 335.406769 355.007507 334.264679 C 355.694611 334.725769 356.349945 335.529724 357.048157 336.669434 z" stroke-linecap="round"/>
</g>
		<g transform="matrix(1 0 0 1 85.0341 46.4586)" id="Layer_1">
<path style="stroke: none; stroke-width: 1; stroke-dasharray: none; stroke-linecap: butt; stroke-dashoffset: 0; stroke-linejoin: miter; stroke-miterlimit: 4; is-custom-font: none; font-file-url: none; fill: rgb(179,212,76); fill-rule: nonzero; opacity: 1;" transform=" translate(-335.0342, -296.4585)" d="M 336.054016 297.641113 C 335.390106 297.19101 334.699188 296.405701 334.014343 295.27597 C 334.689301 295.722992 335.358154 296.514465 336.054016 297.641113 z" stroke-linecap="round"/>
</g>
		<g transform="matrix(1 0 0 1 87.9783 51.3026)" id="Layer_1">
<path style="stroke: none; stroke-width: 1; stroke-dasharray: none; stroke-linecap: butt; stroke-dashoffset: 0; stroke-linejoin: miter; stroke-miterlimit: 4; is-custom-font: none; font-file-url: none; fill: rgb(179,212,76); fill-rule: nonzero; opacity: 1;" transform=" translate(-337.9783, -301.3026)" d="M 339.041046 302.643677 C 338.361176 302.110504 337.641296 301.223938 336.915588 299.961487 C 337.606873 300.487152 338.303955 301.388672 339.041046 302.643677 z" stroke-linecap="round"/>
</g>
		<g transform="matrix(1 0 0 1 81.9695 42.3193)" id="Layer_1">
<path style="stroke: none; stroke-width: 1; stroke-dasharray: none; stroke-linecap: butt; stroke-dashoffset: 0; stroke-linejoin: miter; stroke-miterlimit: 4; is-custom-font: none; font-file-url: none; fill: rgb(179,212,76); fill-rule: nonzero; opacity: 1;" transform=" translate(-331.9695, -292.3193)" d="M 333.028259 293.65979 C 332.361694 293.123199 331.640747 292.237885 330.910767 290.97879 C 331.592438 291.50705 332.283142 292.409027 333.028259 293.65979 z" stroke-linecap="round"/>
</g>
		<g transform="matrix(1 0 0 1 73.9939 120.7875)" id="Layer_1">
<path style="stroke: none; stroke-width: 1; stroke-dasharray: none; stroke-linecap: butt; stroke-dashoffset: 0; stroke-linejoin: miter; stroke-miterlimit: 4; is-custom-font: none; font-file-url: none; fill: rgb(181,210,84); fill-rule: nonzero; opacity: 1;" transform=" translate(-323.9938, -370.7875)" d="M 323.056152 371.432129 C 322.971069 370.757629 322.999878 370.373688 323.04425 369.70752 C 323.707397 370.111877 324.355072 370.798431 324.986176 371.786865 C 324.369781 371.966705 323.769928 371.844696 323.056152 371.432129 z" stroke-linecap="round"/>
</g>
		<g transform="matrix(1 0 0 1 79.4805 -67.8957)" id="Layer_1">
<path style="stroke: none; stroke-width: 1; stroke-dasharray: none; stroke-linecap: butt; stroke-dashoffset: 0; stroke-linejoin: miter; stroke-miterlimit: 4; is-custom-font: none; font-file-url: none; fill: rgb(179,212,76); fill-rule: nonzero; opacity: 1;" transform=" translate(-329.4805, -182.1043)" d="M 330.944824 181.099991 C 330.343201 181.812988 329.365112 182.458694 328.016113 183.108612 C 328.619568 182.419449 329.593964 181.726074 330.944824 181.099991 z" stroke-linecap="round"/>
</g>
		<g transform="matrix(1 0 0 1 109.5288 120.9182)" id="Layer_1">
<path style="stroke: none; stroke-width: 1; stroke-dasharray: none; stroke-linecap: butt; stroke-dashoffset: 0; stroke-linejoin: miter; stroke-miterlimit: 4; is-custom-font: none; font-file-url: none; fill: rgb(179,212,76); fill-rule: nonzero; opacity: 1;" transform=" translate(-359.5288, -370.9182)" d="M 360.037048 371.647614 C 359.703918 371.421936 359.313416 370.905914 359.02063 370.188782 C 359.405457 370.444183 359.692596 370.900726 360.037048 371.647614 z" stroke-linecap="round"/>
</g>
		<g transform="matrix(1 0 0 1 79.9523 127.0684)" id="Layer_1">
<path style="stroke: none; stroke-width: 1; stroke-dasharray: none; stroke-linecap: butt; stroke-dashoffset: 0; stroke-linejoin: miter; stroke-miterlimit: 4; is-custom-font: none; font-file-url: none; fill: rgb(181,210,84); fill-rule: nonzero; opacity: 1;" transform=" translate(-329.9523, -377.0684)" d="M 328.967407 376.358002 C 329.580536 376.492004 330.232666 376.976685 330.937195 377.77887 C 330.328552 377.63385 329.66748 377.171265 328.967407 376.358002 z" stroke-linecap="round"/>
</g>
		<g transform="matrix(1 0 0 1 -96.9267 -35.0211)" id="Layer_1">
<path style="stroke: none; stroke-width: 1; stroke-dasharray: none; stroke-linecap: butt; stroke-dashoffset: 0; stroke-linejoin: miter; stroke-miterlimit: 4; is-custom-font: none; font-file-url: none; fill: rgb(179,212,76); fill-rule: nonzero; opacity: 1;" transform=" translate(-153.0733, -214.979)" d="M 153.159271 216.159744 C 152.928482 216.172516 152.69397 216.128708 152.107437 216.017944 C 152.295425 215.276321 152.835403 214.601654 153.729401 213.796021 C 154.09613 213.886398 154.108826 214.107742 153.915527 214.818634 C 153.478592 215.529633 153.266922 215.768188 153.074554 216.023849 C 153.074554 216.023849 153.155563 216.10318 153.159271 216.159744 z" stroke-linecap="round"/>
</g>
		<g transform="matrix(1 0 0 1 78.4514 125.5414)" id="Layer_1">
<path style="stroke: none; stroke-width: 1; stroke-dasharray: none; stroke-linecap: butt; stroke-dashoffset: 0; stroke-linejoin: miter; stroke-miterlimit: 4; is-custom-font: none; font-file-url: none; fill: rgb(181,210,84); fill-rule: nonzero; opacity: 1;" transform=" translate(-328.4514, -375.5414)" d="M 328.001526 375.25885 C 328.218719 375.186401 328.507843 375.383636 328.901367 375.82608 C 328.694977 375.89035 328.384186 375.709442 328.001526 375.25885 z" stroke-linecap="round"/>
</g>
		<g transform="matrix(1 0 0 1 77.4401 124.5491)" id="Layer_1">
<path style="stroke: none; stroke-width: 1; stroke-dasharray: none; stroke-linecap: butt; stroke-dashoffset: 0; stroke-linejoin: miter; stroke-miterlimit: 4; is-custom-font: none; font-file-url: none; fill: rgb(181,210,84); fill-rule: nonzero; opacity: 1;" transform=" translate(-327.4401, -374.5492)" d="M 327.000427 374.257751 C 327.194794 374.200165 327.467712 374.411713 327.879761 374.844055 C 327.705597 374.885529 327.392242 374.706207 327.000427 374.257751 z" stroke-linecap="round"/>
</g>
		<g transform="matrix(1 0 0 1 76.443 123.5484)" id="Layer_1">
<path style="stroke: none; stroke-width: 1; stroke-dasharray: none; stroke-linecap: butt; stroke-dashoffset: 0; stroke-linejoin: miter; stroke-miterlimit: 4; is-custom-font: none; font-file-url: none; fill: rgb(181,210,84); fill-rule: nonzero; opacity: 1;" transform=" translate(-326.443, -373.5485)" d="M 325.975403 373.282806 C 326.21637 373.188934 326.520599 373.371704 326.910583 373.815552 C 326.677094 373.904236 326.35788 373.731842 325.975403 373.282806 z" stroke-linecap="round"/>
</g>
		<g transform="matrix(1 0 0 1 75.4318 122.5601)" id="Layer_1">
<path style="stroke: none; stroke-width: 1; stroke-dasharray: none; stroke-linecap: butt; stroke-dashoffset: 0; stroke-linejoin: miter; stroke-miterlimit: 4; is-custom-font: none; font-file-url: none; fill: rgb(181,210,84); fill-rule: nonzero; opacity: 1;" transform=" translate(-325.4318, -372.56)" d="M 325.010376 372.238617 C 325.175751 372.210907 325.426239 372.451385 325.85318 372.883575 C 325.718231 372.885773 325.40683 372.696259 325.010376 372.238617 z" stroke-linecap="round"/>
</g>
		<g transform="matrix(1 0 0 1 -20.446 -33.5502)" id="Layer_1">
<path style="stroke: none; stroke-width: 1; stroke-dasharray: none; stroke-linecap: butt; stroke-dashoffset: 0; stroke-linejoin: miter; stroke-miterlimit: 4; is-custom-font: none; font-file-url: none; fill: rgb(179,212,76); fill-rule: nonzero; opacity: 1;" transform=" translate(-229.554, -216.4498)" d="M 229.998352 216.73912 C 229.790985 216.804047 229.512619 216.596725 229.109589 216.157288 C 229.299057 216.105728 229.613205 216.286301 229.998352 216.73912 z" stroke-linecap="round"/>
</g>
		<g transform="matrix(1 0 0 1 -19.3987 -32.5192)" id="Layer_1">
<path style="stroke: none; stroke-width: 1; stroke-dasharray: none; stroke-linecap: butt; stroke-dashoffset: 0; stroke-linejoin: miter; stroke-miterlimit: 4; is-custom-font: none; font-file-url: none; fill: rgb(179,212,76); fill-rule: nonzero; opacity: 1;" transform=" translate(-230.6013, -217.4808)" d="M 231.060852 217.7995 C 230.887726 217.839554 230.595566 217.61232 230.141815 217.159882 C 230.300781 217.133835 230.621292 217.333023 231.060852 217.7995 z" stroke-linecap="round"/>
</g>
		<g transform="matrix(1 0 0 1 107.8879 117.5636)" id="Layer_1">
<path style="stroke: none; stroke-width: 1; stroke-dasharray: none; stroke-linecap: butt; stroke-dashoffset: 0; stroke-linejoin: miter; stroke-miterlimit: 4; is-custom-font: none; font-file-url: none; fill: rgb(179,212,76); fill-rule: nonzero; opacity: 1;" transform=" translate(-357.8878, -367.5637)" d="M 357.953064 367.744995 C 357.970154 367.906738 357.863098 367.425568 357.826599 367.35907 C 357.790131 367.292542 357.935944 367.583282 357.953064 367.744995 z" stroke-linecap="round"/>
</g>
		<g transform="matrix(1 0 0 1 86.4951 48.6909)" id="Layer_1">
<path style="stroke: none; stroke-width: 1; stroke-dasharray: none; stroke-linecap: butt; stroke-dashoffset: 0; stroke-linejoin: miter; stroke-miterlimit: 4; is-custom-font: none; font-file-url: none; fill: rgb(179,212,76); fill-rule: nonzero; opacity: 1;" transform=" translate(-336.4952, -298.6909)" d="M 336.92981 299.143982 C 336.615601 299.177216 336.353638 298.861694 336.060516 298.236359 C 336.346924 298.216125 336.66449 298.505707 336.92981 299.143982 z" stroke-linecap="round"/>
</g>
		<g transform="matrix(1 0 0 1 79.5548 38.4526)" id="Layer_1">
<path style="stroke: none; stroke-width: 1; stroke-dasharray: none; stroke-linecap: butt; stroke-dashoffset: 0; stroke-linejoin: miter; stroke-miterlimit: 4; is-custom-font: none; font-file-url: none; fill: rgb(179,212,76); fill-rule: nonzero; opacity: 1;" transform=" translate(-329.5548, -288.4526)" d="M 329.994324 288.74054 C 329.797455 288.800446 329.520386 288.595093 329.115326 288.161865 C 329.296265 288.114441 329.605164 288.294861 329.994324 288.74054 z" stroke-linecap="round"/>
</g>
		<g transform="matrix(1 0 0 1 30.3194 -120.554)" id="Layer_1">
<path style="stroke: none; stroke-width: 1; stroke-dasharray: none; stroke-linecap: butt; stroke-dashoffset: 0; stroke-linejoin: miter; stroke-miterlimit: 4; is-custom-font: none; font-file-url: none; fill: rgb(181,210,84); fill-rule: nonzero; opacity: 1;" transform=" translate(-280.3194, -129.446)" d="M 280.497742 129.160416 C 280.552704 129.269318 280.440643 129.434616 280.254395 129.731537 C 280.036133 129.599884 280.086304 129.38443 280.497742 129.160416 z" stroke-linecap="round"/>
</g>
		<g transform="matrix(1 0 0 1 113.5612 93.4405)" id="Layer_1">
<path style="stroke: none; stroke-width: 1; stroke-dasharray: none; stroke-linecap: butt; stroke-dashoffset: 0; stroke-linejoin: miter; stroke-miterlimit: 4; is-custom-font: none; font-file-url: none; fill: rgb(181,210,84); fill-rule: nonzero; opacity: 1;" transform=" translate(-363.5612, -343.4405)" d="M 364 343.742126 C 363.80484 343.795563 363.533936 343.576813 363.122437 343.135529 C 363.296021 343.098633 363.610107 343.284332 364 343.742126 z" stroke-linecap="round"/>
</g>
		<g transform="matrix(1 0 0 1 112.5661 92.4401)" id="Layer_1">
<path style="stroke: none; stroke-width: 1; stroke-dasharray: none; stroke-linecap: butt; stroke-dashoffset: 0; stroke-linejoin: miter; stroke-miterlimit: 4; is-custom-font: none; font-file-url: none; fill: rgb(179,212,76); fill-rule: nonzero; opacity: 1;" transform=" translate(-362.5661, -342.4401)" d="M 362.996155 342.751221 C 362.815582 342.792084 362.555573 342.562042 362.136047 342.125641 C 362.289917 342.106293 362.603302 342.293304 362.996155 342.751221 z" stroke-linecap="round"/>
</g>
		<g transform="matrix(1 0 0 1 111.5672 91.4394)" id="Layer_1">
<path style="stroke: none; stroke-width: 1; stroke-dasharray: none; stroke-linecap: butt; stroke-dashoffset: 0; stroke-linejoin: miter; stroke-miterlimit: 4; is-custom-font: none; font-file-url: none; fill: rgb(179,212,76); fill-rule: nonzero; opacity: 1;" transform=" translate(-361.5672, -341.4395)" d="M 361.998627 341.75238 C 361.820129 341.791779 361.559814 341.559845 361.135834 341.123291 C 361.287048 341.10614 361.601929 341.293579 361.998627 341.75238 z" stroke-linecap="round"/>
</g>
		<g transform="matrix(1 0 0 1 80.4897 39.6633)" id="Layer_1">
<path style="stroke: none; stroke-width: 1; stroke-dasharray: none; stroke-linecap: butt; stroke-dashoffset: 0; stroke-linejoin: miter; stroke-miterlimit: 4; is-custom-font: none; font-file-url: none; fill: rgb(179,212,76); fill-rule: nonzero; opacity: 1;" transform=" translate(-330.4897, -289.6632)" d="M 330.905487 290.105743 C 330.620392 290.132202 330.378082 289.820953 330.073883 289.219452 C 330.324097 289.208832 330.636169 289.488403 330.905487 290.105743 z" stroke-linecap="round"/>
</g>
		<g transform="matrix(1 0 0 1 107.5671 87.4447)" id="Layer_1">
<path style="stroke: none; stroke-width: 1; stroke-dasharray: none; stroke-linecap: butt; stroke-dashoffset: 0; stroke-linejoin: miter; stroke-miterlimit: 4; is-custom-font: none; font-file-url: none; fill: rgb(179,212,76); fill-rule: nonzero; opacity: 1;" transform=" translate(-357.5671, -337.4448)" d="M 357.996765 337.761047 C 357.822449 337.796722 357.564392 337.561371 357.13739 337.125488 C 357.283325 337.113281 357.598175 337.301636 357.996765 337.761047 z" stroke-linecap="round"/>
</g>
		<g transform="matrix(1 0 0 1 83.553 44.4459)" id="Layer_1">
<path style="stroke: none; stroke-width: 1; stroke-dasharray: none; stroke-linecap: butt; stroke-dashoffset: 0; stroke-linejoin: miter; stroke-miterlimit: 4; is-custom-font: none; font-file-url: none; fill: rgb(179,212,76); fill-rule: nonzero; opacity: 1;" transform=" translate(-333.5531, -294.4459)" d="M 333.986206 294.748169 C 333.798615 294.796722 333.530396 294.578247 333.119934 294.140625 C 333.286957 294.108032 333.596283 294.294586 333.986206 294.748169 z" stroke-linecap="round"/>
</g>
		<g transform="matrix(1 0 0 1 28.4955 -117.675)" id="Layer_1">
<path style="stroke: none; stroke-width: 1; stroke-dasharray: none; stroke-linecap: butt; stroke-dashoffset: 0; stroke-linejoin: miter; stroke-miterlimit: 4; is-custom-font: none; font-file-url: none; fill: rgb(181,210,84); fill-rule: nonzero; opacity: 1;" transform=" translate(-278.4955, -132.325)" d="M 278.817688 131.808212 C 278.859863 131.978561 278.645233 132.326736 278.173279 132.841797 C 278.130951 132.667801 278.345886 132.32692 278.817688 131.808212 z" stroke-linecap="round"/>
</g>
		<g transform="matrix(1 0 0 1 -89.0547 -42.4775)" id="Layer_1">
<path style="stroke: none; stroke-width: 1; stroke-dasharray: none; stroke-linecap: butt; stroke-dashoffset: 0; stroke-linejoin: miter; stroke-miterlimit: 4; is-custom-font: none; font-file-url: none; fill: rgb(173,208,58); fill-rule: nonzero; opacity: 1;" transform=" translate(-160.9454, -207.5225)" d="M 160.311829 207.989944 C 160.481995 207.76123 160.906708 207.451416 161.578903 207.05513 C 161.406387 207.282043 160.986374 207.595444 160.311829 207.989944 z" stroke-linecap="round"/>
</g>
		<g transform="matrix(1 0 0 1 -96.418 -34.4829)" id="Layer_1">
<path style="stroke: none; stroke-width: 1; stroke-dasharray: none; stroke-linecap: butt; stroke-dashoffset: 0; stroke-linejoin: miter; stroke-miterlimit: 4; is-custom-font: none; font-file-url: none; fill: rgb(173,208,58); fill-rule: nonzero; opacity: 1;" transform=" translate(-153.582, -215.5171)" d="M 153.271286 215.883942 C 153.266922 215.768188 153.478592 215.529633 153.891083 215.150299 C 153.913376 215.276993 153.711838 215.527527 153.271286 215.883942 z" stroke-linecap="round"/>
</g>
		<g transform="matrix(1 0 0 1 -115.505 -5.5064)" id="Layer_1">
<path style="stroke: none; stroke-width: 1; stroke-dasharray: none; stroke-linecap: butt; stroke-dashoffset: 0; stroke-linejoin: miter; stroke-miterlimit: 4; is-custom-font: none; font-file-url: none; fill: rgb(160,210,5); fill-rule: nonzero; opacity: 1;" transform=" translate(-134.495, -244.4936)" d="M 134.494965 244.493576 C 134.523666 244.481522 134.466278 244.50563 134.494965 244.493576 z" stroke-linecap="round"/>
</g>
		<g transform="matrix(1 0 0 1 -117.4787 -4.5085)" id="Layer_1">
<path style="stroke: none; stroke-width: 1; stroke-dasharray: none; stroke-linecap: butt; stroke-dashoffset: 0; stroke-linejoin: miter; stroke-miterlimit: 4; is-custom-font: none; font-file-url: none; fill: rgb(160,210,5); fill-rule: nonzero; opacity: 1;" transform=" translate(-132.5213, -245.4914)" d="M 132.521271 245.491409 C 132.534119 245.519653 132.508408 245.463165 132.521271 245.491409 z" stroke-linecap="round"/>
</g>
</g>
</g>
</svg>