<svg version="1.1" id="Layer_1" xmlns="http://www.w3.org/2000/svg" xmlns:xlink="http://www.w3.org/1999/xlink" x="0px" y="0px"
	 width="100%" viewBox="0 0 500 500" enable-background="new 0 0 500 500" xml:space="preserve">
<path fill="#000000" opacity="1.000000" stroke="none" 
	d="
M341.000000,501.000000 
	C227.333359,501.000000 114.166718,501.000000 1.000061,501.000000 
	C1.000041,334.333405 1.000041,167.666794 1.000020,1.000150 
	C167.666565,1.000100 334.333130,1.000100 500.999756,1.000050 
	C500.999847,167.666519 500.999847,334.333038 500.999939,500.999786 
	C447.833344,501.000000 394.666656,501.000000 341.000000,501.000000 
M361.916809,341.481049 
	C361.601929,341.293579 361.287048,341.106140 361.000793,341.015106 
	C361.000793,341.015106 361.097260,340.986664 361.008820,340.285156 
	C360.008453,339.493744 359.008087,338.702332 357.983643,338.007843 
	C357.983643,338.007843 358.080536,338.032074 357.912994,337.489990 
	C357.598175,337.301636 357.283325,337.113281 356.989716,337.026093 
	C356.989716,337.026093 357.090973,337.005127 357.005310,336.333710 
	C356.349945,335.529724 355.694611,334.725769 355.018646,333.983154 
	C355.018646,333.983154 355.083252,333.987305 354.984833,333.225403 
	C352.349396,327.566742 349.903931,321.808929 347.019592,316.280090 
	C344.624084,311.688293 341.712189,307.365906 339.014069,302.989868 
	C339.014069,302.989868 339.081085,302.997101 339.001007,302.290222 
	C338.303955,301.388672 337.606873,300.487152 336.941437,299.522644 
	C336.941437,299.522644 336.877594,299.492706 336.982056,298.795288 
	C336.664490,298.505707 336.346924,298.216125 336.019135,297.988831 
	C336.019135,297.988831 336.081024,297.976318 336.027008,297.305939 
	C335.358154,296.514465 334.689301,295.722992 333.999817,294.997650 
	C333.999817,294.997650 334.066833,295.015198 333.905579,294.481171 
	C333.596283,294.294586 333.286957,294.108032 332.986725,294.017426 
	C332.986725,294.017426 333.082672,294.008545 332.973846,293.311035 
	C332.283142,292.409027 331.592438,291.507050 330.963196,290.504700 
	C330.963196,290.504700 330.862701,290.443481 330.948273,289.768005 
	C330.636169,289.488403 330.324097,289.208832 330.004456,288.999237 
	C330.004456,288.999237 330.074554,289.005798 329.914062,288.475281 
	C329.605164,288.294861 329.296265,288.114441 329.000732,288.004272 
	C329.000732,288.004272 329.070984,287.990997 329.013306,287.307373 
	C328.017029,286.181641 327.020721,285.055908 326.012421,283.992493 
	C326.012421,283.992493 326.075562,283.985870 326.001526,283.268372 
	C323.310944,280.084778 320.620331,276.901184 317.639160,273.134491 
	C315.947540,271.156494 314.528503,268.818329 312.501221,267.283813 
	C309.360901,264.906860 309.715302,262.108063 310.589172,259.036224 
	C310.976440,257.674835 311.560913,256.370880 312.000275,255.022720 
	C313.183929,251.390854 313.544098,247.176224 315.669983,244.231781 
	C319.979584,238.262802 325.317505,233.045898 330.087219,227.397141 
	C336.511627,219.788773 342.869293,212.121262 349.108795,204.361099 
	C351.293701,201.643707 352.497162,198.052155 356.761627,197.560150 
	C357.278809,197.500488 357.559601,195.391739 358.537201,193.906311 
	C359.427063,192.925812 360.316956,191.945312 361.544525,190.975433 
	C361.544525,190.975433 361.853088,190.837799 362.624359,190.785645 
	C363.783325,186.724640 366.279480,184.119003 370.467529,183.001953 
	C371.317322,182.775284 372.523560,180.603455 372.395752,180.472885 
	C369.175903,177.182083 372.956512,177.067276 374.394440,176.081619 
	C375.822296,175.102875 377.703094,174.663498 378.893341,173.489059 
	C380.519348,171.884628 381.397156,169.865005 378.012238,168.989410 
	C378.012238,168.989410 378.071136,168.967880 378.037262,168.303345 
	C378.713745,167.205261 379.390198,166.107162 380.816925,164.954498 
	C384.219635,163.214539 389.367554,163.289795 388.947540,157.067322 
	C384.023804,156.768799 379.719208,157.489731 375.495361,161.033005 
	C363.406372,162.820480 353.287048,169.567108 342.397064,174.335892 
	C338.462433,176.058884 334.999451,178.858780 330.568390,181.032700 
	C329.593964,181.726074 328.619568,182.419449 327.455292,183.042267 
	C327.455292,183.042267 327.293121,183.163589 326.564331,182.922058 
	C326.622528,182.232727 326.455017,181.409775 326.772308,180.873840 
	C332.801300,170.690460 337.143463,160.022385 335.971924,147.872498 
	C335.589539,143.907196 334.708069,139.990021 334.694977,135.804184 
	C340.577911,130.486755 343.139160,123.503510 340.424805,116.384743 
	C338.680298,111.809517 340.013367,109.140335 341.716095,105.645821 
	C342.564514,103.904610 342.587341,101.761108 343.344574,99.139816 
	C343.584961,96.069656 344.290710,92.949074 343.964661,89.940292 
	C343.366577,84.420929 342.938324,79.091911 346.345490,74.228310 
	C346.791901,73.591087 346.934967,72.741371 347.806915,71.621880 
	C350.910248,66.166008 351.359070,60.300144 350.600708,53.205917 
	C348.077332,54.252441 346.005402,55.111736 343.993134,55.987534 
	C343.993134,55.987534 343.984558,55.926247 343.279907,55.996193 
	C340.830963,57.984905 338.381989,59.973621 335.990845,61.985580 
	C335.990845,61.985580 335.970245,61.926800 335.251862,61.974895 
	C330.477814,66.306252 325.703735,70.637611 320.988220,74.988388 
	C320.988220,74.988388 320.968170,74.930061 320.302185,75.169266 
	C318.130798,76.995667 315.521698,78.494720 313.866852,80.707420 
	C307.965820,88.597504 302.360779,96.710396 296.730530,104.799400 
	C296.120056,105.676437 296.074127,106.946434 295.412994,108.088341 
	C295.172028,108.214050 295.063293,108.412292 294.365112,108.973511 
	C293.858734,109.982254 293.352356,110.990997 292.973694,111.988327 
	C292.973694,111.988327 292.962036,111.860603 292.348572,112.175941 
	C290.529327,114.781898 288.710052,117.387848 286.979156,119.988464 
	C286.979156,119.988464 286.973572,119.900124 286.335846,120.171829 
	C284.580994,123.026535 282.826141,125.881241 280.798950,128.844269 
	C280.798950,128.844269 280.669434,129.107178 280.326080,129.213654 
	C280.086304,129.384430 280.036133,129.599884 279.972473,130.349518 
	C279.673157,130.776474 279.373840,131.203445 278.560852,131.986053 
	C278.345886,132.326920 278.130951,132.667801 277.979858,132.987915 
	C277.979858,132.987915 277.950836,132.927353 277.388947,133.051605 
	C276.909180,133.635498 276.429382,134.219391 275.285156,135.094910 
	C272.248566,140.990814 269.211975,146.886719 265.924957,153.476395 
	C265.323700,154.440292 264.702881,155.392593 264.124176,156.369843 
	C254.266403,173.016678 247.119751,190.531494 246.978790,210.265152 
	C246.929779,217.127518 243.510910,220.556808 235.796432,220.393555 
	C234.514420,219.876648 233.232422,219.359741 231.876968,218.435623 
	C231.722794,218.164932 231.490433,218.041992 230.941803,217.532211 
	C230.621292,217.333023 230.300781,217.133835 229.986557,217.017426 
	C229.986557,217.017426 230.069351,217.011368 229.927353,216.466858 
	C229.613205,216.286301 229.299057,216.105728 228.997116,216.001678 
	C228.997116,216.001678 229.073639,215.989548 228.809998,215.373764 
	C227.070908,213.972626 225.331802,212.571487 223.467957,211.030289 
	C223.467957,211.030289 223.289185,211.087036 223.026352,210.397980 
	C221.686890,209.236374 220.347443,208.074768 219.011719,206.983536 
	C219.011719,206.983536 219.082031,206.978836 218.825104,206.354660 
	C217.554947,205.542877 216.284805,204.731094 215.011871,203.983368 
	C215.011871,203.983368 215.074280,203.968536 214.836563,203.301804 
	C211.886780,201.840149 208.936996,200.378479 206.005661,198.993958 
	C206.005661,198.993958 206.082794,198.975418 205.794983,198.295654 
	C194.056320,191.052063 182.129303,191.398529 170.519333,198.202240 
	C166.213943,200.725296 162.737198,204.662369 158.296082,208.270432 
	C157.106354,209.862457 155.916611,211.454468 154.390289,213.096527 
	C154.162415,213.218262 154.060135,213.407761 153.375381,213.926971 
	C152.835403,214.601654 152.295425,215.276321 151.145844,216.238464 
	C148.960190,219.796310 146.772644,223.352997 144.589340,226.912277 
	C141.155655,232.509979 138.411133,238.758926 132.332199,242.112473 
	C121.321098,248.186905 110.101891,253.888229 99.170029,260.098206 
	C97.271492,261.176697 94.849297,264.427307 95.280037,265.922333 
	C96.491051,270.125580 99.387741,267.315155 101.458313,266.181732 
	C113.394699,259.647736 125.548683,253.452698 137.096252,246.284653 
	C147.117126,240.064270 156.939957,237.109070 168.479858,243.000443 
	C168.479858,243.000443 168.946701,243.116333 169.235214,243.758987 
	C175.572968,248.587799 183.395401,248.916901 191.382507,251.055038 
	C196.213547,255.532547 200.839203,260.259644 205.916580,264.437805 
	C218.060715,274.431274 230.006561,284.745758 242.813843,293.828918 
	C253.768356,301.598053 265.392975,308.672913 279.118805,312.594757 
	C286.252380,315.239441 288.710541,320.492096 288.057312,327.832031 
	C287.720947,331.611237 287.769440,335.499298 288.244904,339.262268 
	C289.712921,350.880737 291.469879,362.462677 293.324371,374.781311 
	C294.554443,378.605011 295.784515,382.428711 297.309662,387.169678 
	C303.719025,380.962067 300.518463,373.279480 303.940094,366.641815 
	C305.474030,370.113770 306.658234,373.050781 308.053680,375.883728 
	C309.587097,378.996887 311.314972,382.014282 313.003754,385.838684 
	C313.919037,388.220886 314.834320,390.603058 316.083344,393.584320 
	C317.326904,393.252960 319.320099,393.268951 319.666260,392.521790 
	C320.528931,390.659912 320.749390,388.465485 321.035065,386.378204 
	C321.729065,381.307343 322.313599,376.221436 323.170074,371.722687 
	C323.769928,371.844696 324.369781,371.966705 325.006439,372.007477 
	C325.006439,372.007477 324.925262,371.970459 325.095459,372.506775 
	C325.406830,372.696259 325.718231,372.885773 326.005371,372.982056 
	C326.005371,372.982056 325.912109,373.006165 326.038696,373.559448 
	C326.357880,373.731842 326.677094,373.904236 327.002991,373.995483 
	C327.002991,373.995483 326.921906,373.988617 327.078918,374.526886 
	C327.392242,374.706207 327.705597,374.885529 328.011993,374.982422 
	C328.011993,374.982422 327.929596,374.989166 328.073425,375.528503 
	C328.384186,375.709442 328.694977,375.890350 328.999115,376.000580 
	C328.999115,376.000580 328.928406,376.007324 329.006409,376.708679 
	C329.667480,377.171265 330.328552,377.633850 330.997253,378.009644 
	C330.997253,378.009644 330.910461,378.002136 331.025574,378.742432 
	C331.325958,379.305176 331.490234,380.045685 331.951233,380.398560 
	C333.585602,381.649445 335.321289,382.768005 337.018585,383.936676 
	C337.658386,382.102478 338.847992,380.264709 338.836151,378.434753 
	C338.798950,372.686005 338.271210,366.941559 338.071838,361.190613 
	C338.056549,360.749084 339.123413,360.270050 340.287354,360.029785 
	C340.579834,360.322998 340.872314,360.616180 341.048950,361.648346 
	C342.008301,363.331329 343.310242,364.908295 343.869568,366.715088 
	C346.784882,376.132721 355.657135,375.168579 362.161194,378.318726 
	C362.593597,377.936371 363.026001,377.554047 363.458405,377.171722 
	C362.625336,375.695618 361.792267,374.219513 360.843018,372.325500 
	C360.656250,372.075043 360.406708,371.945862 359.979736,371.357239 
	C359.692596,370.900726 359.405457,370.444183 359.004059,369.349792 
	C358.659424,368.868774 358.314789,368.387756 357.935944,367.583282 
	C357.935944,367.583282 357.790131,367.292542 357.946442,366.523529 
	C357.946442,364.702606 357.946442,362.881683 357.946442,360.107788 
	C360.865906,362.367004 362.516968,363.644684 364.227509,365.665497 
	C364.765411,366.283142 365.185730,367.189087 365.862885,367.465271 
	C368.046783,368.355988 370.325287,369.014740 372.567322,369.762909 
	C372.699982,368.223816 373.034576,366.671082 372.931519,365.147949 
	C372.385162,357.075745 369.302155,350.032837 364.008118,343.993042 
	C364.008118,343.993042 364.075775,344.014282 363.924225,343.470001 
	C363.610107,343.284332 363.296021,343.098633 362.974335,343.014252 
	C362.974335,343.014252 363.075562,343.022095 362.916718,342.480347 
	C362.603302,342.293304 362.289917,342.106293 361.976410,342.023285 
	C361.976410,342.023285 362.080444,342.023682 361.916809,341.481049 
z"/>
<path fill="#A0D205" opacity="1.000000" stroke="none" 
	d="
M360.094391,371.937988 
	C360.406708,371.945862 360.656250,372.075043 360.849030,372.869934 
	C360.434357,374.042450 360.076935,375.156952 359.582977,375.221130 
	C355.830048,375.709015 348.650909,371.018127 346.637756,367.559448 
	C345.212372,365.110565 343.016632,363.110046 341.164795,360.909393 
	C340.872314,360.616180 340.579834,360.322998 339.930176,359.656128 
	C337.000671,358.118317 336.216431,358.475433 336.274414,361.616974 
	C336.347687,365.587830 337.034821,369.543610 337.248505,373.517151 
	C337.367798,375.735626 337.064209,377.976868 336.951172,380.207855 
	C334.937622,379.472595 332.924042,378.737366 330.910461,378.002136 
	C330.910461,378.002136 330.997253,378.009644 330.941040,377.735474 
	C330.232666,376.976685 329.580536,376.492004 328.928406,376.007324 
	C328.928406,376.007324 328.999115,376.000580 328.898041,375.790710 
	C328.507843,375.383636 328.218719,375.186401 327.929596,374.989166 
	C327.929596,374.989166 328.011993,374.982422 327.876282,374.802856 
	C327.467712,374.411713 327.194794,374.200165 326.921906,373.988617 
	C326.921906,373.988617 327.002991,373.995483 326.913940,373.774963 
	C326.520599,373.371704 326.216370,373.188934 325.912109,373.006165 
	C325.912109,373.006165 326.005371,372.982056 325.841064,372.836975 
	C325.426239,372.451385 325.175751,372.210907 324.925262,371.970459 
	C324.925262,371.970459 325.006439,372.007477 325.004578,371.746216 
	C324.355072,370.798431 323.707397,370.111877 322.688110,369.414307 
	C321.598145,370.697113 320.487244,371.923370 320.250244,373.300049 
	C319.859070,375.572235 320.444916,378.047577 319.880035,380.247528 
	C318.772034,384.562469 317.155640,388.746857 315.749634,392.985260 
	C314.834320,390.603058 313.919037,388.220886 312.950439,385.070282 
	C310.570068,377.570068 309.519348,370.205017 302.162933,365.001251 
	C301.092590,370.425079 300.022278,375.848907 298.951935,381.272736 
	C298.528320,381.226044 298.104706,381.179382 297.681091,381.132690 
	C296.599579,377.945770 295.518036,374.758850 294.416199,371.140289 
	C292.860657,355.194580 291.363495,339.676544 289.745819,324.171082 
	C289.524811,322.052612 289.020813,319.841003 288.091858,317.944916 
	C286.246857,314.179016 283.409607,311.553253 278.768066,311.936218 
	C265.392975,308.672913 253.768356,301.598053 242.813843,293.828918 
	C230.006561,284.745758 218.060715,274.431274 205.916580,264.437805 
	C200.839203,260.259644 196.213547,255.532547 190.935715,250.637756 
	C183.308182,247.852417 176.127441,245.484375 168.946701,243.116333 
	C168.946701,243.116333 168.479858,243.000443 168.149200,242.597321 
	C163.508926,236.362015 157.231506,237.337692 151.474182,238.110580 
	C146.825363,238.734665 142.368820,240.791016 137.500748,242.314041 
	C142.845810,233.407654 148.004395,224.811981 153.159271,216.159744 
	C153.155563,216.103180 153.074554,216.023849 153.271286,215.883942 
	C153.711838,215.527527 153.913376,215.276993 154.097076,214.660767 
	C154.108826,214.107742 154.096130,213.886398 154.083420,213.665054 
	C154.060135,213.407761 154.162415,213.218262 154.935043,213.042450 
	C157.015396,211.366028 158.551010,209.743683 160.095398,208.099380 
	C160.104172,208.077423 160.057297,208.071045 160.311829,207.989944 
	C160.986374,207.595444 161.406387,207.282043 162.075775,206.736725 
	C173.448181,196.946289 185.765457,192.364258 200.398254,197.317184 
	C202.266190,197.949432 204.186661,198.426483 206.082794,198.975418 
	C206.082794,198.975418 206.005661,198.993958 206.171768,199.247650 
	C209.250015,200.990402 212.162140,202.479462 215.074280,203.968536 
	C215.074280,203.968536 215.011871,203.983368 215.087830,204.290710 
	C216.469864,205.391632 217.775940,206.185226 219.082031,206.978836 
	C219.082031,206.978836 219.011719,206.983536 219.081207,207.289856 
	C220.530182,208.759796 221.909683,209.923416 223.289185,211.087036 
	C223.289185,211.087036 223.467957,211.030289 223.660950,211.434174 
	C225.593842,213.221878 227.333740,214.605713 229.073639,215.989548 
	C229.073639,215.989548 228.997116,216.001678 229.115692,216.195541 
	C229.512619,216.596725 229.790985,216.804047 230.069351,217.011383 
	C230.069351,217.011368 229.986557,217.017426 230.144974,217.201263 
	C230.595566,217.612320 230.887726,217.839554 231.179901,218.066772 
	C231.490433,218.041992 231.722794,218.164932 232.071136,218.962158 
	C233.560806,219.993744 234.856339,220.498795 236.151855,221.003830 
	C243.510910,220.556808 246.929779,217.127518 246.978790,210.265152 
	C247.119751,190.531494 254.266403,173.016678 264.124176,156.369843 
	C264.702881,155.392593 265.323700,154.440292 266.332581,153.003540 
	C269.868713,147.422012 272.997192,142.313354 276.409485,136.995453 
	C277.112457,135.499939 277.531647,134.213654 277.950867,132.927353 
	C277.950836,132.927353 277.979858,132.987915 278.205231,132.831421 
	C278.645233,132.326736 278.859863,131.978561 279.074524,131.630386 
	C279.373840,131.203445 279.673157,130.776474 280.152832,129.976288 
	C280.440643,129.434616 280.552704,129.269318 280.669434,129.107178 
	C280.669434,129.107178 280.798950,128.844269 281.224213,128.690399 
	C283.424164,125.657715 285.198883,122.778923 286.973572,119.900131 
	C286.973572,119.900124 286.979156,119.988464 287.271790,119.900230 
	C289.363617,117.161530 291.162811,114.511070 292.962036,111.860603 
	C292.962036,111.860603 292.973694,111.988327 293.231293,111.844299 
	C294.021545,110.694542 294.554199,109.688805 295.086853,108.683075 
	C295.063293,108.412292 295.172028,108.214050 295.915344,107.930923 
	C297.377930,106.865616 298.478424,106.066032 299.276489,105.032837 
	C306.178314,96.097763 313.049530,87.138580 319.850983,78.127060 
	C320.498535,77.269073 320.608582,76.005394 320.968170,74.930054 
	C320.968170,74.930061 320.988220,74.988388 321.320374,74.996735 
	C326.425110,70.645645 331.197662,66.286217 335.970245,61.926796 
	C335.970245,61.926800 335.990845,61.985580 336.336548,62.023926 
	C339.116364,60.016933 341.550476,57.971596 343.984558,55.926250 
	C343.984558,55.926247 343.993134,55.987534 344.384277,56.018005 
	C348.386017,55.604195 349.538940,57.607105 349.127167,60.736286 
	C348.631104,64.505989 347.866760,68.240395 347.218567,71.990067 
	C346.934967,72.741371 346.791901,73.591087 346.345490,74.228310 
	C342.938324,79.091911 343.366577,84.420929 343.964661,89.940292 
	C344.290710,92.949074 343.584961,96.069656 342.946136,99.746033 
	C340.853699,104.398346 336.910004,109.135757 337.899933,112.357086 
	C340.555756,120.999504 339.039490,127.974449 333.573059,134.964005 
	C333.105469,136.731049 332.512939,138.363983 332.802490,139.821716 
	C335.371948,152.757324 333.687500,164.944641 326.885132,176.349136 
	C326.038208,177.769012 325.336121,179.317444 324.835602,180.891739 
	C324.120209,183.141663 324.806396,184.210464 327.293121,183.163589 
	C327.293121,183.163589 327.455292,183.042267 327.921173,183.073334 
	C329.365112,182.458694 330.343201,181.812988 331.321259,181.167267 
	C334.999451,178.858780 338.462433,176.058884 342.397064,174.335892 
	C353.287048,169.567108 363.406372,162.820480 376.166321,161.143524 
	C379.443085,160.524323 382.048889,159.794601 384.654694,159.064880 
	C384.824005,159.511322 384.993286,159.957764 385.162598,160.404205 
	C383.232971,161.757599 381.303345,163.110992 379.055450,164.544373 
	C377.790802,165.637329 376.844421,166.650299 375.898071,167.663269 
	C376.622437,168.098145 377.346771,168.533020 378.071136,168.967880 
	C378.071136,168.967880 378.012238,168.989410 377.943848,169.324799 
	C376.588409,171.177536 375.552032,173.076157 373.956909,174.125046 
	C371.412140,175.798355 367.940796,176.310608 368.128448,180.536560 
	C368.157654,181.194229 366.759460,181.814636 366.301392,182.612961 
	C364.750732,185.315628 363.325989,188.090515 361.853088,190.837799 
	C361.853088,190.837799 361.544525,190.975433 361.006470,191.018860 
	C359.628937,192.119080 358.789429,193.175858 357.949921,194.232635 
	C357.559601,195.391739 357.278809,197.500488 356.761627,197.560150 
	C352.497162,198.052155 351.293701,201.643707 349.108795,204.361099 
	C342.869293,212.121262 336.511627,219.788773 330.087219,227.397141 
	C325.317505,233.045898 319.979584,238.262802 315.669983,244.231781 
	C313.544098,247.176224 313.183929,251.390854 312.000275,255.022720 
	C311.560913,256.370880 310.976440,257.674835 310.589172,259.036224 
	C309.715302,262.108063 309.360901,264.906860 312.501221,267.283813 
	C314.528503,268.818329 315.947540,271.156494 317.819275,273.809326 
	C320.691467,277.651367 323.383514,280.818634 326.075562,283.985870 
	C326.075562,283.985870 326.012421,283.992493 326.008453,284.319580 
	C327.026642,285.761414 328.048828,286.876221 329.070984,287.990997 
	C329.070984,287.990997 329.000732,288.004272 329.122009,288.197021 
	C329.520386,288.595093 329.797455,288.800446 330.074554,289.005798 
	C330.074554,289.005798 330.004456,288.999237 330.070129,289.254456 
	C330.378082,289.820953 330.620392,290.132202 330.862701,290.443481 
	C330.862701,290.443481 330.963196,290.504700 330.941467,290.928619 
	C331.640747,292.237885 332.361694,293.123199 333.082672,294.008545 
	C333.082672,294.008545 332.986725,294.017426 333.124451,294.188599 
	C333.530396,294.578247 333.798615,294.796722 334.066833,295.015198 
	C334.066833,295.015198 333.999817,294.997650 334.004028,295.309021 
	C334.699188,296.405701 335.390106,297.191010 336.081024,297.976318 
	C336.081024,297.976318 336.019135,297.988831 336.055420,298.267517 
	C336.353638,298.861694 336.615601,299.177216 336.877594,299.492706 
	C336.877594,299.492706 336.941437,299.522644 336.931396,299.929993 
	C337.641296,301.223938 338.361176,302.110504 339.081085,302.997101 
	C339.081085,302.997101 339.014069,302.989868 339.004700,303.340149 
	C343.026154,312.001465 346.987213,320.347565 351.138977,328.597687 
	C352.126068,330.559143 353.751465,332.199341 355.083252,333.987305 
	C355.083252,333.987305 355.018646,333.983154 354.997192,334.295349 
	C355.680817,335.406769 356.385895,336.205963 357.090973,337.005127 
	C357.090973,337.005127 356.989716,337.026093 357.148010,337.176056 
	C357.564392,337.561371 357.822449,337.796722 358.080536,338.032074 
	C358.080536,338.032074 357.983643,338.007843 358.048096,338.303070 
	C359.107452,339.394409 360.102356,340.190521 361.097260,340.986664 
	C361.097260,340.986664 361.000793,341.015106 361.150146,341.171509 
	C361.559814,341.559845 361.820129,341.791779 362.080444,342.023682 
	C362.080444,342.023682 361.976410,342.023285 362.135986,342.177673 
	C362.555573,342.562042 362.815582,342.792084 363.075562,343.022095 
	C363.075562,343.022095 362.974335,343.014252 363.118652,343.186157 
	C363.533936,343.576813 363.804840,343.795563 364.075775,344.014282 
	C364.075775,344.014282 364.008118,343.993042 363.989746,344.343628 
	C365.801849,348.946899 367.707184,353.169312 369.445648,357.459320 
	C372.209442,364.279358 371.384644,365.395630 364.168060,364.922363 
	C362.516968,363.644684 360.865906,362.367004 357.946442,360.107788 
	C357.946442,362.881683 357.946442,364.702606 357.904785,366.974548 
	C357.863098,367.425568 357.970154,367.906738 357.970154,367.906738 
	C358.314789,368.387756 358.659424,368.868774 358.963501,369.869843 
	C359.313416,370.905914 359.703918,371.421936 360.094391,371.937988 
z"/>
<path fill="#ADD03A" opacity="1.000000" stroke="none" 
	d="
M153.162979,216.216309 
	C148.004395,224.811981 142.845810,233.407654 137.500748,242.314041 
	C142.368820,240.791016 146.825363,238.734665 151.474182,238.110580 
	C157.231506,237.337692 163.508926,236.362015 167.920578,242.522614 
	C156.939957,237.109070 147.117126,240.064270 137.096252,246.284653 
	C125.548683,253.452698 113.394699,259.647736 101.458313,266.181732 
	C99.387741,267.315155 96.491051,270.125580 95.280037,265.922333 
	C94.849297,264.427307 97.271492,261.176697 99.170029,260.098206 
	C110.101891,253.888229 121.321098,248.186905 132.332199,242.112473 
	C138.411133,238.758926 141.155655,232.509979 144.589340,226.912277 
	C146.772644,223.352997 148.960190,219.796310 151.802643,216.161682 
	C152.693970,216.128708 152.928482,216.172516 153.162979,216.216309 
M134.466278,244.505630 
	C134.466278,244.505630 134.523666,244.481522 134.466278,244.505630 
M132.508408,245.463165 
	C132.508408,245.463165 132.534119,245.519653 132.508408,245.463165 
z"/>
<path fill="#BED961" opacity="1.000000" stroke="none" 
	d="
M278.943420,312.265503 
	C283.409607,311.553253 286.246857,314.179016 288.091858,317.944916 
	C289.020813,319.841003 289.524811,322.052612 289.745819,324.171082 
	C291.363495,339.676544 292.860657,355.194580 294.288513,371.474304 
	C293.825653,372.846252 293.470123,373.452515 293.114624,374.058807 
	C291.469879,362.462677 289.712921,350.880737 288.244904,339.262268 
	C287.769440,335.499298 287.720947,331.611237 288.057312,327.832031 
	C288.710541,320.492096 286.252380,315.239441 278.943420,312.265503 
z"/>
<path fill="#B3D44C" opacity="1.000000" stroke="none" 
	d="
M293.219482,374.420044 
	C293.470123,373.452515 293.825653,372.846252 294.308838,371.905945 
	C295.518036,374.758850 296.599579,377.945770 297.681091,381.132690 
	C298.104706,381.179382 298.528320,381.226044 298.951935,381.272736 
	C300.022278,375.848907 301.092590,370.425079 302.162933,365.001251 
	C309.519348,370.205017 310.570068,377.570068 312.927643,384.687622 
	C311.314972,382.014282 309.587097,378.996887 308.053680,375.883728 
	C306.658234,373.050781 305.474030,370.113770 303.940094,366.641815 
	C300.518463,373.279480 303.719025,380.962067 297.309662,387.169678 
	C295.784515,382.428711 294.554443,378.605011 293.219482,374.420044 
z"/>
<path fill="#B3D44C" opacity="1.000000" stroke="none" 
	d="
M326.928711,183.042816 
	C324.806396,184.210464 324.120209,183.141663 324.835602,180.891739 
	C325.336121,179.317444 326.038208,177.769012 326.885132,176.349136 
	C333.687500,164.944641 335.371948,152.757324 332.802490,139.821716 
	C332.512939,138.363983 333.105469,136.731049 333.626740,135.289871 
	C333.994659,135.617203 334.024780,135.834030 334.054871,136.050842 
	C334.708069,139.990021 335.589539,143.907196 335.971924,147.872498 
	C337.143463,160.022385 332.801300,170.690460 326.772308,180.873840 
	C326.455017,181.409775 326.622528,182.232727 326.928711,183.042816 
z"/>
<path fill="#B3D44C" opacity="1.000000" stroke="none" 
	d="
M205.938889,198.635529 
	C204.186661,198.426483 202.266190,197.949432 200.398254,197.317184 
	C185.765457,192.364258 173.448181,196.946289 161.828278,206.823196 
	C160.906708,207.451416 160.481995,207.761230 160.057297,208.071045 
	C160.057297,208.071045 160.104172,208.077423 159.794250,208.056244 
	C159.283752,208.008255 159.083160,207.981430 158.882568,207.954590 
	C162.737198,204.662369 166.213943,200.725296 170.519333,198.202240 
	C182.129303,191.398529 194.056320,191.052063 205.938889,198.635529 
z"/>
<path fill="#B5D254" opacity="1.000000" stroke="none" 
	d="
M320.635193,75.049660 
	C320.608582,76.005394 320.498535,77.269073 319.850983,78.127060 
	C313.049530,87.138580 306.178314,96.097763 299.276489,105.032837 
	C298.478424,106.066032 297.377930,106.865616 296.091980,107.903839 
	C296.074127,106.946434 296.120056,105.676437 296.730530,104.799400 
	C302.360779,96.710396 307.965820,88.597504 313.866852,80.707420 
	C315.521698,78.494720 318.130798,76.995667 320.635193,75.049660 
z"/>
<path fill="#B5D254" opacity="1.000000" stroke="none" 
	d="
M364.197784,365.293945 
	C371.384644,365.395630 372.209442,364.279358 369.445648,357.459320 
	C367.707184,353.169312 365.801849,348.946899 364.000458,344.309814 
	C369.302155,350.032837 372.385162,357.075745 372.931519,365.147949 
	C373.034576,366.671082 372.699982,368.223816 372.567322,369.762909 
	C370.325287,369.014740 368.046783,368.355988 365.862885,367.465271 
	C365.185730,367.189087 364.765411,366.283142 364.197784,365.293945 
z"/>
<path fill="#B5D254" opacity="1.000000" stroke="none" 
	d="
M334.374939,135.927521 
	C334.024780,135.834030 333.994659,135.617203 333.910828,135.074524 
	C339.039490,127.974449 340.555756,120.999504 337.899933,112.357086 
	C336.910004,109.135757 340.853699,104.398346 342.765625,100.075912 
	C342.587341,101.761108 342.564514,103.904610 341.716095,105.645821 
	C340.013367,109.140335 338.680298,111.809517 340.424805,116.384743 
	C343.139160,123.503510 340.577911,130.486755 334.374939,135.927521 
z"/>
<path fill="#B5D254" opacity="1.000000" stroke="none" 
	d="
M362.238708,190.811722 
	C363.325989,188.090515 364.750732,185.315628 366.301392,182.612961 
	C366.759460,181.814636 368.157654,181.194229 368.128448,180.536560 
	C367.940796,176.310608 371.412140,175.798355 373.956909,174.125046 
	C375.552032,173.076157 376.588409,171.177536 377.956604,169.296143 
	C381.397156,169.865005 380.519348,171.884628 378.893341,173.489059 
	C377.703094,174.663498 375.822296,175.102875 374.394440,176.081619 
	C372.956512,177.067276 369.175903,177.182083 372.395752,180.472885 
	C372.523560,180.603455 371.317322,182.775284 370.467529,183.001953 
	C366.279480,184.119003 363.783325,186.724640 362.238708,190.811722 
z"/>
<path fill="#B5D254" opacity="1.000000" stroke="none" 
	d="
M330.968018,378.372284 
	C332.924042,378.737366 334.937622,379.472595 336.951172,380.207855 
	C337.064209,377.976868 337.367798,375.735626 337.248505,373.517151 
	C337.034821,369.543610 336.347687,365.587830 336.274414,361.616974 
	C336.216431,358.475433 337.000671,358.118317 339.630127,359.545471 
	C339.123413,360.270050 338.056549,360.749084 338.071838,361.190613 
	C338.271210,366.941559 338.798950,372.686005 338.836151,378.434753 
	C338.847992,380.264709 337.658386,382.102478 337.018585,383.936676 
	C335.321289,382.768005 333.585602,381.649445 331.951233,380.398560 
	C331.490234,380.045685 331.325958,379.305176 330.968018,378.372284 
z"/>
<path fill="#B3D44C" opacity="1.000000" stroke="none" 
	d="
M355.034058,333.606354 
	C353.751465,332.199341 352.126068,330.559143 351.138977,328.597687 
	C346.987213,320.347565 343.026154,312.001465 339.012177,303.307312 
	C341.712189,307.365906 344.624084,311.688293 347.019592,316.280090 
	C349.903931,321.808929 352.349396,327.566742 355.034058,333.606354 
z"/>
<path fill="#B3D44C" opacity="1.000000" stroke="none" 
	d="
M341.106873,361.278870 
	C343.016632,363.110046 345.212372,365.110565 346.637756,367.559448 
	C348.650909,371.018127 355.830048,375.709015 359.582977,375.221130 
	C360.076935,375.156952 360.434357,374.042450 360.907104,373.078918 
	C361.792267,374.219513 362.625336,375.695618 363.458405,377.171722 
	C363.026001,377.554047 362.593597,377.936371 362.161194,378.318726 
	C355.657135,375.168579 346.784882,376.132721 343.869568,366.715088 
	C343.310242,364.908295 342.008301,363.331329 341.106873,361.278870 
z"/>
<path fill="#A8C54E" opacity="1.000000" stroke="none" 
	d="
M315.916504,393.284790 
	C317.155640,388.746857 318.772034,384.562469 319.880035,380.247528 
	C320.444916,378.047577 319.859070,375.572235 320.250244,373.300049 
	C320.487244,371.923370 321.598145,370.697113 322.672577,369.696503 
	C322.999878,370.373688 322.971069,370.757629 322.942230,371.141602 
	C322.313599,376.221436 321.729065,381.307343 321.035065,386.378204 
	C320.749390,388.465485 320.528931,390.659912 319.666260,392.521790 
	C319.320099,393.268951 317.326904,393.252960 315.916504,393.284790 
z"/>
<path fill="#BED961" opacity="1.000000" stroke="none" 
	d="
M379.373718,164.464386 
	C381.303345,163.110992 383.232971,161.757599 385.162598,160.404205 
	C384.993286,159.957764 384.824005,159.511322 384.654694,159.064880 
	C382.048889,159.794601 379.443085,160.524323 376.583496,161.214539 
	C379.719208,157.489731 384.023804,156.768799 388.947540,157.067322 
	C389.367554,163.289795 384.219635,163.214539 380.327148,164.886124 
	C379.680511,164.702988 379.525970,164.585205 379.373718,164.464386 
z"/>
<path fill="#B5D254" opacity="1.000000" stroke="none" 
	d="
M169.090958,243.437653 
	C176.127441,245.484375 183.308182,247.852417 190.590622,250.529587 
	C183.395401,248.916901 175.572968,248.587799 169.090958,243.437653 
z"/>
<path fill="#B5D254" opacity="1.000000" stroke="none" 
	d="
M347.512756,71.805977 
	C347.866760,68.240395 348.631104,64.505989 349.127167,60.736286 
	C349.538940,57.607105 348.386017,55.604195 344.354462,56.009750 
	C346.005402,55.111736 348.077332,54.252441 350.600708,53.205917 
	C351.359070,60.300144 350.910248,66.166008 347.512756,71.805977 
z"/>
<path fill="#B5D254" opacity="1.000000" stroke="none" 
	d="
M335.611053,61.950844 
	C331.197662,66.286217 326.425110,70.645645 321.291138,74.987015 
	C325.703735,70.637611 330.477814,66.306252 335.611053,61.950844 
z"/>
<path fill="#BED961" opacity="1.000000" stroke="none" 
	d="
M276.125671,137.204681 
	C272.997192,142.313354 269.868713,147.422012 266.457794,152.656647 
	C269.211975,146.886719 272.248566,140.990814 275.654968,135.348480 
	C276.058380,136.136261 276.092041,136.670471 276.125671,137.204681 
z"/>
<path fill="#B3D44C" opacity="1.000000" stroke="none" 
	d="
M326.038544,283.627136 
	C323.383514,280.818634 320.691467,277.651367 317.964569,274.100861 
	C320.620331,276.901184 323.310944,280.084778 326.038544,283.627136 
z"/>
<path fill="#B5D254" opacity="1.000000" stroke="none" 
	d="
M292.655304,112.018272 
	C291.162811,114.511070 289.363617,117.161530 287.227600,119.902893 
	C288.710052,117.387848 290.529327,114.781898 292.655304,112.018272 
z"/>
<path fill="#B5D254" opacity="1.000000" stroke="none" 
	d="
M286.654724,120.035980 
	C285.198883,122.778923 283.424164,125.657715 281.360382,128.636230 
	C282.826141,125.881241 284.580994,123.026535 286.654724,120.035980 
z"/>
<path fill="#B5D254" opacity="1.000000" stroke="none" 
	d="
M343.632233,55.961224 
	C341.550476,57.971596 339.116364,60.016933 336.307648,62.012306 
	C338.381989,59.973621 340.830963,57.984905 343.632233,55.961224 
z"/>
<path fill="#B3D44C" opacity="1.000000" stroke="none" 
	d="
M214.955414,203.635162 
	C212.162140,202.479462 209.250015,200.990402 206.162537,199.209076 
	C208.936996,200.378479 211.886780,201.840149 214.955414,203.635162 
z"/>
<path fill="#B5D254" opacity="1.000000" stroke="none" 
	d="
M379.055450,164.544373 
	C379.525970,164.585205 379.680511,164.702988 379.952026,164.913406 
	C379.390198,166.107162 378.713745,167.205261 378.054199,168.635620 
	C377.346771,168.533020 376.622437,168.098145 375.898071,167.663269 
	C376.844421,166.650299 377.790802,165.637329 379.055450,164.544373 
z"/>
<path fill="#ADD03A" opacity="1.000000" stroke="none" 
	d="
M158.589325,208.112518 
	C159.083160,207.981430 159.283752,208.008255 159.785477,208.078217 
	C158.551010,209.743683 157.015396,211.366028 155.103333,213.017426 
	C155.916611,211.454468 157.106354,209.862457 158.589325,208.112518 
z"/>
<path fill="#B3D44C" opacity="1.000000" stroke="none" 
	d="
M228.941818,215.681656 
	C227.333740,214.605713 225.593842,213.221878 223.723328,211.504211 
	C225.331802,212.571487 227.070908,213.972626 228.941818,215.681656 
z"/>
<path fill="#B3D44C" opacity="1.000000" stroke="none" 
	d="
M223.157776,210.742523 
	C221.909683,209.923416 220.530182,208.759796 219.079346,207.254669 
	C220.347443,208.074768 221.686890,209.236374 223.157776,210.742523 
z"/>
<path fill="#B3D44C" opacity="1.000000" stroke="none" 
	d="
M218.953568,206.666748 
	C217.775940,206.185226 216.469864,205.391632 215.089218,204.258667 
	C216.284805,204.731094 217.554947,205.542877 218.953568,206.666748 
z"/>
<path fill="#B3D44C" opacity="1.000000" stroke="none" 
	d="
M329.042145,287.649170 
	C328.048828,286.876221 327.026642,285.761414 326.014465,284.288391 
	C327.020721,285.055908 328.017029,286.181641 329.042145,287.649170 
z"/>
<path fill="#B5D254" opacity="1.000000" stroke="none" 
	d="
M276.409485,136.995453 
	C276.092041,136.670471 276.058380,136.136261 275.987183,135.202667 
	C276.429382,134.219391 276.909180,133.635498 277.669922,132.989471 
	C277.531647,134.213654 277.112457,135.499939 276.409485,136.995453 
z"/>
<path fill="#B3D44C" opacity="1.000000" stroke="none" 
	d="
M361.053040,340.635925 
	C360.102356,340.190521 359.107452,339.394409 358.060120,338.254608 
	C359.008087,338.702332 360.008453,339.493744 361.053040,340.635925 
z"/>
<path fill="#B5D254" opacity="1.000000" stroke="none" 
	d="
M294.725983,108.828293 
	C294.554199,109.688805 294.021545,110.694542 293.167419,111.850006 
	C293.352356,110.990997 293.858734,109.982254 294.725983,108.828293 
z"/>
<path fill="#B3D44C" opacity="1.000000" stroke="none" 
	d="
M235.974152,220.698700 
	C234.856339,220.498795 233.560806,219.993744 232.107849,219.165771 
	C233.232422,219.359741 234.514420,219.876648 235.974152,220.698700 
z"/>
<path fill="#B5D254" opacity="1.000000" stroke="none" 
	d="
M358.243561,194.069489 
	C358.789429,193.175858 359.628937,192.119080 360.837646,191.013550 
	C360.316956,191.945312 359.427063,192.925812 358.243561,194.069489 
z"/>
<path fill="#B3D44C" opacity="1.000000" stroke="none" 
	d="
M357.048157,336.669434 
	C356.385895,336.205963 355.680817,335.406769 355.007507,334.264679 
	C355.694611,334.725769 356.349945,335.529724 357.048157,336.669434 
z"/>
<path fill="#B3D44C" opacity="1.000000" stroke="none" 
	d="
M336.054016,297.641113 
	C335.390106,297.191010 334.699188,296.405701 334.014343,295.275970 
	C334.689301,295.722992 335.358154,296.514465 336.054016,297.641113 
z"/>
<path fill="#B3D44C" opacity="1.000000" stroke="none" 
	d="
M339.041046,302.643677 
	C338.361176,302.110504 337.641296,301.223938 336.915588,299.961487 
	C337.606873,300.487152 338.303955,301.388672 339.041046,302.643677 
z"/>
<path fill="#B3D44C" opacity="1.000000" stroke="none" 
	d="
M333.028259,293.659790 
	C332.361694,293.123199 331.640747,292.237885 330.910767,290.978790 
	C331.592438,291.507050 332.283142,292.409027 333.028259,293.659790 
z"/>
<path fill="#B5D254" opacity="1.000000" stroke="none" 
	d="
M323.056152,371.432129 
	C322.971069,370.757629 322.999878,370.373688 323.044250,369.707520 
	C323.707397,370.111877 324.355072,370.798431 324.986176,371.786865 
	C324.369781,371.966705 323.769928,371.844696 323.056152,371.432129 
z"/>
<path fill="#B3D44C" opacity="1.000000" stroke="none" 
	d="
M330.944824,181.099991 
	C330.343201,181.812988 329.365112,182.458694 328.016113,183.108612 
	C328.619568,182.419449 329.593964,181.726074 330.944824,181.099991 
z"/>
<path fill="#B3D44C" opacity="1.000000" stroke="none" 
	d="
M360.037048,371.647614 
	C359.703918,371.421936 359.313416,370.905914 359.020630,370.188782 
	C359.405457,370.444183 359.692596,370.900726 360.037048,371.647614 
z"/>
<path fill="#B5D254" opacity="1.000000" stroke="none" 
	d="
M328.967407,376.358002 
	C329.580536,376.492004 330.232666,376.976685 330.937195,377.778870 
	C330.328552,377.633850 329.667480,377.171265 328.967407,376.358002 
z"/>
<path fill="#B3D44C" opacity="1.000000" stroke="none" 
	d="
M153.159271,216.159744 
	C152.928482,216.172516 152.693970,216.128708 152.107437,216.017944 
	C152.295425,215.276321 152.835403,214.601654 153.729401,213.796021 
	C154.096130,213.886398 154.108826,214.107742 153.915527,214.818634 
	C153.478592,215.529633 153.266922,215.768188 153.074554,216.023849 
	C153.074554,216.023849 153.155563,216.103180 153.159271,216.159744 
z"/>
<path fill="#B5D254" opacity="1.000000" stroke="none" 
	d="
M328.001526,375.258850 
	C328.218719,375.186401 328.507843,375.383636 328.901367,375.826080 
	C328.694977,375.890350 328.384186,375.709442 328.001526,375.258850 
z"/>
<path fill="#B5D254" opacity="1.000000" stroke="none" 
	d="
M327.000427,374.257751 
	C327.194794,374.200165 327.467712,374.411713 327.879761,374.844055 
	C327.705597,374.885529 327.392242,374.706207 327.000427,374.257751 
z"/>
<path fill="#B5D254" opacity="1.000000" stroke="none" 
	d="
M325.975403,373.282806 
	C326.216370,373.188934 326.520599,373.371704 326.910583,373.815552 
	C326.677094,373.904236 326.357880,373.731842 325.975403,373.282806 
z"/>
<path fill="#B5D254" opacity="1.000000" stroke="none" 
	d="
M325.010376,372.238617 
	C325.175751,372.210907 325.426239,372.451385 325.853180,372.883575 
	C325.718231,372.885773 325.406830,372.696259 325.010376,372.238617 
z"/>
<path fill="#B3D44C" opacity="1.000000" stroke="none" 
	d="
M229.998352,216.739120 
	C229.790985,216.804047 229.512619,216.596725 229.109589,216.157288 
	C229.299057,216.105728 229.613205,216.286301 229.998352,216.739120 
z"/>
<path fill="#B3D44C" opacity="1.000000" stroke="none" 
	d="
M231.060852,217.799500 
	C230.887726,217.839554 230.595566,217.612320 230.141815,217.159882 
	C230.300781,217.133835 230.621292,217.333023 231.060852,217.799500 
z"/>
<path fill="#B3D44C" opacity="1.000000" stroke="none" 
	d="
M357.953064,367.744995 
	C357.970154,367.906738 357.863098,367.425568 357.826599,367.359070 
	C357.790131,367.292542 357.935944,367.583282 357.953064,367.744995 
z"/>
<path fill="#B3D44C" opacity="1.000000" stroke="none" 
	d="
M336.929810,299.143982 
	C336.615601,299.177216 336.353638,298.861694 336.060516,298.236359 
	C336.346924,298.216125 336.664490,298.505707 336.929810,299.143982 
z"/>
<path fill="#B3D44C" opacity="1.000000" stroke="none" 
	d="
M329.994324,288.740540 
	C329.797455,288.800446 329.520386,288.595093 329.115326,288.161865 
	C329.296265,288.114441 329.605164,288.294861 329.994324,288.740540 
z"/>
<path fill="#B5D254" opacity="1.000000" stroke="none" 
	d="
M280.497742,129.160416 
	C280.552704,129.269318 280.440643,129.434616 280.254395,129.731537 
	C280.036133,129.599884 280.086304,129.384430 280.497742,129.160416 
z"/>
<path fill="#B5D254" opacity="1.000000" stroke="none" 
	d="
M364.000000,343.742126 
	C363.804840,343.795563 363.533936,343.576813 363.122437,343.135529 
	C363.296021,343.098633 363.610107,343.284332 364.000000,343.742126 
z"/>
<path fill="#B3D44C" opacity="1.000000" stroke="none" 
	d="
M362.996155,342.751221 
	C362.815582,342.792084 362.555573,342.562042 362.136047,342.125641 
	C362.289917,342.106293 362.603302,342.293304 362.996155,342.751221 
z"/>
<path fill="#B3D44C" opacity="1.000000" stroke="none" 
	d="
M361.998627,341.752380 
	C361.820129,341.791779 361.559814,341.559845 361.135834,341.123291 
	C361.287048,341.106140 361.601929,341.293579 361.998627,341.752380 
z"/>
<path fill="#B3D44C" opacity="1.000000" stroke="none" 
	d="
M330.905487,290.105743 
	C330.620392,290.132202 330.378082,289.820953 330.073883,289.219452 
	C330.324097,289.208832 330.636169,289.488403 330.905487,290.105743 
z"/>
<path fill="#B3D44C" opacity="1.000000" stroke="none" 
	d="
M357.996765,337.761047 
	C357.822449,337.796722 357.564392,337.561371 357.137390,337.125488 
	C357.283325,337.113281 357.598175,337.301636 357.996765,337.761047 
z"/>
<path fill="#B3D44C" opacity="1.000000" stroke="none" 
	d="
M333.986206,294.748169 
	C333.798615,294.796722 333.530396,294.578247 333.119934,294.140625 
	C333.286957,294.108032 333.596283,294.294586 333.986206,294.748169 
z"/>
<path fill="#B5D254" opacity="1.000000" stroke="none" 
	d="
M278.817688,131.808212 
	C278.859863,131.978561 278.645233,132.326736 278.173279,132.841797 
	C278.130951,132.667801 278.345886,132.326920 278.817688,131.808212 
z"/>
<path fill="#ADD03A" opacity="1.000000" stroke="none" 
	d="
M160.311829,207.989944 
	C160.481995,207.761230 160.906708,207.451416 161.578903,207.055130 
	C161.406387,207.282043 160.986374,207.595444 160.311829,207.989944 
z"/>
<path fill="#ADD03A" opacity="1.000000" stroke="none" 
	d="
M153.271286,215.883942 
	C153.266922,215.768188 153.478592,215.529633 153.891083,215.150299 
	C153.913376,215.276993 153.711838,215.527527 153.271286,215.883942 
z"/>
<path fill="#A0D205" opacity="1.000000" stroke="none" 
	d="
M134.494965,244.493576 
	C134.523666,244.481522 134.466278,244.505630 134.494965,244.493576 
z"/>
<path fill="#A0D205" opacity="1.000000" stroke="none" 
	d="
M132.521271,245.491409 
	C132.534119,245.519653 132.508408,245.463165 132.521271,245.491409 
z"/>
</svg>